<svg id="Capa_1" data-name="Capa 1" xmlns="http://www.w3.org/2000/svg" xmlns:xlink="http://www.w3.org/1999/xlink" viewBox="0 0 620.6 586.05"><defs><style>.cls-1{fill:none;}.cls-2{opacity:0.24;}.cls-3{clip-path:url(#clip-path);}</style><clipPath id="clip-path"><rect class="cls-1" y="-0.66" width="620.6" height="586.71"/></clipPath></defs><title>Mesa de trabajo 1</title><g class="cls-2"><g class="cls-3"><path d="M598.1,453.57,583.81,461a8,8,0,0,0-3.36,10.76l12.91,24.35a16.39,16.39,0,0,0,21.33,7A16,16,0,0,0,622,481.77c0-.12-.12-.24-.18-.36L608.93,457a8,8,0,0,0-10.79-3.41l0,0Zm-5.65,4.86,6.4-3.35a6.38,6.38,0,0,1,2.74-.72l6.82,12.92a4.51,4.51,0,0,1-1.89,6.09h0l-4.82,2.52-2.62-4.9a2.63,2.63,0,0,0,.45-3l-1.67-3.16a2.68,2.68,0,0,0-2.77-1.36Zm3.91,7.12,1.62,3.07a.94.94,0,1,1-1.58,1,.75.75,0,0,1-.07-.12l-1.65-3.11a.92.92,0,1,1,1.66-.8Zm-13.91-1.2a6.33,6.33,0,0,1,2.15-1.83l6.41-3.34,2.61,4.94a2.6,2.6,0,0,0-.45,3l1.67,3.16a2.65,2.65,0,0,0,2.77,1.36l2.62,4.94-4.8,2.56a4.55,4.55,0,0,1-6.12-1.9h0Zm37.75,17.73a14.23,14.23,0,0,1-5.38,19.39l-.11.06a14.41,14.41,0,0,1-19.56-5.47c-.11-.19-.21-.38-.31-.58L581.93,471a6.3,6.3,0,0,1-.44-4.85L587.77,478a6.22,6.22,0,0,0,8.38,2.6h0l11.09-5.79a6.18,6.18,0,0,0,2.63-8.32l0,0-6.27-11.85a6.34,6.34,0,0,1,3.77,3.11Z"/><path d="M602.61,479.43a2.62,2.62,0,1,0,3.56,1.1A2.65,2.65,0,0,0,602.61,479.43Zm1.67,3.15a.93.93,0,1,1,.35-1.35v.08a1,1,0,0,1-.4,1.24Z"/><path d="M645.8,529.81l-41.8-1.7a3.29,3.29,0,0,0-3.43,3.13h0l-1.18,29.87a3.29,3.29,0,0,0,3.16,3.41l14.23.57-.86,5.09h-1a.78.78,0,0,0-.83.73h0a.8.8,0,0,0,.75.82l1.67.07h0l13.41.54h0l1.66.07a.78.78,0,0,0,.08-1.56h-1l-.42-5.14,14.15.57a3.28,3.28,0,0,0,3.43-3.12h0l1.23-29.9a3.27,3.27,0,0,0-3.09-3.44h0Zm-28.43,40.5.86-5.07,10.36.41.42,5.14Zm27-5.52-41.79-1.71a1.7,1.7,0,0,1-1.65-1.75v0h0l.07-1.71,45.24,1.84-.07,1.72a1.71,1.71,0,0,1-1.8,1.56Zm1.93-4.94L601.06,558l1.09-26.68a1.74,1.74,0,0,1,1.79-1.64h0l41.78,1.7a1.72,1.72,0,0,1,1.66,1.78h0Z"/><path d="M644.79,533l-40.09-1.63a.78.78,0,0,0-.82.73h0l-1,23.29a.78.78,0,0,0,.75.81h0l40.1,1.64a.79.79,0,0,0,.81-.75l1-23.28a.78.78,0,0,0-.74-.82h0Zm-1.68,23.25-38.58-1.57.9-21.74L644,534.56Z"/><path d="M287.8,453.57,273.56,461a7.93,7.93,0,0,0-3.4,10.69l0,.06h0l12.87,24.35a16.35,16.35,0,0,0,21.29,7,16,16,0,0,0,7.4-21.38v0l-.19-.37L298.63,457a8,8,0,0,0-10.79-3.4h0Zm-5.67,4.86,6.41-3.35a6.3,6.3,0,0,1,2.72-.72l6.83,12.92a4.52,4.52,0,0,1-1.9,6.1l-4.83,2.52-2.62-4.9a2.58,2.58,0,0,0,.44-3l-1.66-3.16a2.68,2.68,0,0,0-2.77-1.36Zm3.92,7.12,1.61,3.07a1,1,0,0,1-.34,1.27.94.94,0,0,1-1.28-.33v-.05l-1.65-3.11a.93.93,0,1,1,1.68-.8Zm-13.91-1.2a6.19,6.19,0,0,1,2.14-1.83l6.41-3.34,2.61,4.94a2.61,2.61,0,0,0-.44,3l1.67,3.16a2.64,2.64,0,0,0,2.77,1.36l2.62,4.94-4.83,2.52a4.57,4.57,0,0,1-6.13-1.9Zm37.75,17.73a14.25,14.25,0,0,1-5.43,19.41l-.07,0a14.4,14.4,0,0,1-19.55-5.47,6.45,6.45,0,0,1-.31-.58L271.61,471a6.3,6.3,0,0,1-.44-4.85L277.44,478a6.24,6.24,0,0,0,8.4,2.6h0l11.08-5.79a6.18,6.18,0,0,0,2.62-8.35h0l-6.27-11.85a6.29,6.29,0,0,1,3.76,3.11Z"/><path d="M292.3,479.43a2.62,2.62,0,1,0,3.56,1.1A2.65,2.65,0,0,0,292.3,479.43Zm1.67,3.15a1,1,0,1,1,.52-.27.92.92,0,0,1-.49.27Z"/><path d="M488.85,464.5l-16-2.2a8,8,0,0,0-9,6.81L460,496.35a16.24,16.24,0,0,0,13.2,18.07,16.07,16.07,0,0,0,18.54-13.1,4.11,4.11,0,0,1,.07-.47l3.84-27.35a8,8,0,0,0-6.82-9Zm-7.46.67,7.17,1a6.25,6.25,0,0,1,2.64,1l-2,14.47a4.55,4.55,0,0,1-5.12,3.85l-5.39-.74.77-5.55A2.62,2.62,0,0,0,481.6,477l.49-3.52a2.63,2.63,0,0,0-1.45-2.71Zm-1,8.06-.48,3.43a1,1,0,0,1-1,.83.93.93,0,0,1-.85-1v-.05l.49-3.49a.93.93,0,0,1,1.05-.8h0a1,1,0,0,1,.74,1.08Zm-10.6-9a6.38,6.38,0,0,1,2.81-.25l7.17,1-.77,5.54a2.65,2.65,0,0,0-2.14,2.21l-.49,3.53a2.63,2.63,0,0,0,1.46,2.71l-.78,5.55-5.39-.74a4.52,4.52,0,0,1-3.88-5.08h0Zm20.36,36.28a14.36,14.36,0,0,1-28.48-3.77l3.81-27.36a6.28,6.28,0,0,1,2.48-4.2l-1.84,13.28a6.21,6.21,0,0,0,5.28,7h0l12.42,1.71a6.22,6.22,0,0,0,6.95-5.29l1.9-13.26a6.27,6.27,0,0,1,1.24,4.71Z"/><path d="M477.4,488.12a2.61,2.61,0,1,0,2.24,3,2.61,2.61,0,0,0-2.24-3Zm-.49,3.53a1,1,0,0,1-.81-1.07.95.95,0,0,1,1.88.26A1,1,0,0,1,476.91,491.65Z"/><path d="M428.89,415.36,380.65,402.2a4,4,0,0,0-4.84,2.75l-5.28,19.16a3.93,3.93,0,0,0,2.76,4.81l48.23,13.15a4,4,0,0,0,4.85-2.73l5.28-19.17A4,4,0,0,0,428.89,415.36ZM422,440.27l-48.24-13.14a2.08,2.08,0,0,1-1.44-2.53l5.29-19.16a2.07,2.07,0,0,1,2.53-1.43l48.22,13.19a2,2,0,0,1,1.48,2.41l0,.11-5.27,19.11a2.07,2.07,0,0,1-2.52,1.45Z"/><path d="M411.11,431.1l-23.22-6.33a.93.93,0,0,0-.56,1.78h0l23.22,6.33a1,1,0,1,0,1.34-1.48.87.87,0,0,0-.23-.16,1,1,0,0,0-.59-.16Z"/><path d="M384.06,423.73l-1.92-.53a1,1,0,0,0-1.11.5.91.91,0,0,0,.42,1.23h0a.44.44,0,0,0,.16.06l1.92.53a1,1,0,0,0,1.11-.5.9.9,0,0,0-.4-1.22l0,0A.44.44,0,0,0,384.06,423.73Z"/><path d="M378.26,422.14l-1.9-.53a.94.94,0,0,0-.58,1.78h.05l1.92.52a.94.94,0,0,0,.81-1.7l-.14,0h-.16Z"/><path d="M422.65,434.25l-1.92-.53a1,1,0,0,0-1.12.5.93.93,0,0,0,.43,1.24.64.64,0,0,0,.18.06l1.91.53a.93.93,0,0,0,.57-1.78Z"/><path d="M416.86,432.67l-1.92-.53a1,1,0,1,0-1.17,1.63,1,1,0,0,0,.66.18l1.91.52a.94.94,0,1,0,.68-1.76h-.16Z"/><path d="M423.7,430.43l-3.85-1.05a1,1,0,0,0-1.34,1.48.87.87,0,0,0,.23.16,1,1,0,0,0,.59.17l3.86,1a1,1,0,0,0,1.11-.49.91.91,0,0,0-.42-1.23h0Z"/><path d="M416,428.32l-1.9-.51a.93.93,0,0,0-.58,1.77h.06l1.94.52a.94.94,0,0,0,1.15-.64h0a.49.49,0,0,0,0-.17A1,1,0,0,0,416,428.32Z"/><path d="M407.76,428.06l1.92.53a1,1,0,0,0,1.11-.5.93.93,0,0,0-.43-1.24l-.17-.06-1.91-.52a1,1,0,0,0-1.12.49.93.93,0,0,0,.43,1.24A.49.49,0,0,0,407.76,428.06Z"/><path d="M402,426.44l1.92.53a.93.93,0,0,0,1.12-.71.92.92,0,0,0-.54-1.07h-.07l-1.92-.52a.93.93,0,1,0-.56,1.78Z"/><path d="M396.19,424.87l1.91.52a.94.94,0,0,0,.58-1.78h-.06l-1.92-.52a.93.93,0,0,0-1.12.71.92.92,0,0,0,.54,1.07Z"/><path d="M390.39,423.29l1.92.53a1,1,0,0,0,1.11-.5.92.92,0,0,0-.41-1.23h0a.49.49,0,0,0-.17-.06l-1.92-.52a.94.94,0,0,0-1.18.6.93.93,0,0,0,.6,1.17Z"/><path d="M387,420.44l-1.92-.53a1,1,0,0,0-1.11.5.9.9,0,0,0,.4,1.22l0,0a.44.44,0,0,0,.16.06l1.92.53a.93.93,0,0,0,.57-1.78Z"/><path d="M381.26,418.86l-3.86-1.05a1,1,0,0,0-1.11.49.93.93,0,0,0,.42,1.25h0l.16.06,3.86,1.05a.94.94,0,1,0,.67-1.76h0Z"/><path d="M425.81,422.8,422,421.75a1,1,0,0,0-1.22.54.92.92,0,0,0,.51,1.2h0l.16.05,3.85,1.05a1,1,0,0,0,1.12-.5.93.93,0,0,0-.43-1.24A.83.83,0,0,0,425.81,422.8Z"/><path d="M415.62,422l1.9.52a1,1,0,0,0,1.13-.49.94.94,0,0,0-.44-1.24h0l-.17-.07-1.91-.52a1,1,0,0,0-1.12.5.93.93,0,0,0,.43,1.24Z"/><path d="M409.87,420.39l1.91.52a.93.93,0,0,0,.58-1.77h-.06l-1.92-.52a1,1,0,0,0-1.11.49.93.93,0,0,0,.42,1.25h0Z"/><path d="M404.07,418.82l1.92.51a.92.92,0,0,0,1.11-.48,1,1,0,0,0-.53-1.29h-.06l-1.92-.52a1,1,0,0,0-1.38.27,1,1,0,0,0,.27,1.37A.94.94,0,0,0,404.07,418.82Z"/><path d="M398.29,417.2l1.91.52a1,1,0,0,0,1.12-.49.91.91,0,0,0-.42-1.23h0l-.17-.07-1.91-.52a1,1,0,0,0-1.22.54.93.93,0,0,0,.53,1.21h0Z"/><path d="M392.5,415.66l1.92.52a1,1,0,0,0,1.11-.49,1,1,0,0,0-.43-1.25l-.17-.06-1.91-.52a1,1,0,0,0-1.12.49.93.93,0,0,0,.43,1.24Z"/><path d="M386.71,414.08l1.92.52a1,1,0,0,0,1.21-.54.92.92,0,0,0-.51-1.2h0l-.16-.05-1.91-.52a1,1,0,0,0-1.12.49.93.93,0,0,0,.43,1.24Z"/><path d="M379,412l3.85,1.06a1,1,0,0,0,1.38-.27,1,1,0,0,0-.27-1.37,1,1,0,0,0-.59-.17l-3.85-1.05a1,1,0,0,0-1.12.5.93.93,0,0,0,.43,1.24A.49.49,0,0,0,379,412Z"/><path d="M424.75,426.61l-1.91-.52a1,1,0,0,0-1.12.49.91.91,0,0,0,.42,1.23h0l.17.07,1.91.52a1,1,0,0,0,1.22-.54.92.92,0,0,0-.53-1.2h0l-.15-.05Z"/><path d="M419,425l-1.92-.51a1,1,0,0,0-1.22.54.93.93,0,0,0,.53,1.21h0l.16.05,1.92.52A1,1,0,1,0,419,425Z"/><path d="M413.17,423.46l-1.91-.52a1,1,0,0,0-1.12.49.93.93,0,0,0,.43,1.24l.17.07,1.92.52a1,1,0,0,0,1.11-.5.93.93,0,0,0-.43-1.24Z"/><path d="M407.38,421.88l-1.91-.52a1,1,0,0,0-1.12.49.94.94,0,0,0,.44,1.24h0a.49.49,0,0,0,.17.06l1.91.53a1,1,0,0,0,1.12-.5.93.93,0,0,0-.43-1.24Z"/><path d="M401.6,420.3l-1.92-.52a.93.93,0,0,0-.57,1.77h.06l1.91.53a.94.94,0,1,0,.68-1.76h-.16Z"/><path d="M395.81,418.72l-1.92-.51a.94.94,0,0,0-.81,1.7l.14,0h.15l1.92.53a1,1,0,0,0,1.38-.27,1,1,0,0,0-.27-1.37,1,1,0,0,0-.59-.17Z"/><path d="M390,417.2l-1.91-.53a.94.94,0,0,0-.59,1.78h.06l1.92.53a1,1,0,0,0,1.12-.5.91.91,0,0,0-.42-1.23h0A.47.47,0,0,0,390,417.2Z"/><path d="M377.94,415.8l5.78,1.57a.94.94,0,0,0,.58-1.78h-.06L378.45,414a1,1,0,1,0-1.36,1.46.68.68,0,0,0,.26.18,1.12,1.12,0,0,0,.59.17Z"/><path d="M426.87,418.91l-1.91-.52a1,1,0,0,0-1.22.54.94.94,0,0,0,.53,1.22h.17l1.92.52a1,1,0,0,0,1.33-.49,1,1,0,0,0-.23-1.15,1,1,0,0,0-.59-.16Z"/><path d="M421.09,417.34l-1.92-.53a.94.94,0,0,0-.58,1.78h.07l1.92.56a.95.95,0,0,0,.61-1.79Z"/><path d="M415.3,415.76l-1.92-.53a1,1,0,0,0-1.11.5.93.93,0,0,0,.43,1.24l.17.06,1.91.52a1,1,0,0,0,1.12-.49.93.93,0,0,0-.43-1.24A.49.49,0,0,0,415.3,415.76Z"/><path d="M407.07,415.45,409,416a.93.93,0,0,0,1.17-.6.92.92,0,0,0-.59-1.17h-.06l-1.92-.53a1,1,0,0,0-1.11.5.91.91,0,0,0,.42,1.23h.16Z"/><path d="M401.29,413.88l1.92.52a1,1,0,1,0,1.34-1.48.87.87,0,0,0-.23-.16,1.12,1.12,0,0,0-.59-.17l-1.92-.51a1,1,0,0,0-1.22.54.92.92,0,0,0,.53,1.2h0l.16.05Z"/><path d="M395.5,412.26l1.92.52a1,1,0,0,0,1.11-.49.91.91,0,0,0-.42-1.23h0l-.17-.07-1.91-.52a.94.94,0,0,0-.58,1.78Z"/><path d="M389.71,410.72l1.92.52a.93.93,0,0,0,.57-1.78h-.06l-1.91-.52a.94.94,0,0,0-.69,1.74Z"/><path d="M380.06,408.09l5.78,1.57a.94.94,0,0,0,1.22-.53h0a.93.93,0,0,0-.53-1.21h0l-.16-.05-5.78-1.53a1,1,0,0,0-1.22.54.92.92,0,0,0,.53,1.2h0l.15.05Z"/><path d="M529.69,529.19l-46.52,18.2a3.93,3.93,0,0,0-2.23,5.07L488.26,571a4,4,0,0,0,5.1,2.21L539.91,555a4,4,0,0,0,2.23-5.08l-7.31-18.5A4,4,0,0,0,529.69,529.19Zm9.5,24-46.53,18.19a2.07,2.07,0,0,1-2.68-1.15h0l-7.31-18.48a2.05,2.05,0,0,1,1.16-2.67h0l46.54-18.18a2.07,2.07,0,0,1,2.67,1.15l7.31,18.47a2,2,0,0,1-1,2.63l-.12.05Z"/><path d="M524.89,552.39l-22.39,8.76a1,1,0,0,0-.6,1.05.93.93,0,0,0,1,.81H503a.6.6,0,0,0,.19-.06l22.39-8.75a.94.94,0,1,0-.33-1.85l-.18,0h-.18Z"/><path d="M498.84,562.6l-1.85.72a.93.93,0,1,0,.6,1.77h.06l1.85-.72a1,1,0,0,0,.6-1.06,1,1,0,0,0-1.09-.74Z"/><path d="M493.24,564.78l-1.84.72a.94.94,0,0,0,.61,1.77h.06l1.85-.72a.94.94,0,0,0-.62-1.77Z"/><path d="M536.07,548l-1.85.73a.93.93,0,0,0-.62,1.16h0a1,1,0,0,0,1.19.62h.11l1.85-.73a.94.94,0,0,0-.57-1.8Z"/><path d="M530.49,550.22l-1.85.73a.94.94,0,0,0,.51,1.81l.15-.06,1.85-.73a.94.94,0,1,0-.51-1.81h0Z"/><path d="M534.62,544.35l-3.72,1.46a.94.94,0,0,0,.62,1.77h.05l3.72-1.46a.94.94,0,0,0-.51-1.81h0l-.16.06Z"/><path d="M527.15,547.28l-1.83.71a1,1,0,0,0-.6,1.06.92.92,0,0,0,1.07.74h.2l1.86-.72a.93.93,0,0,0,.59-1.18v0a.94.94,0,0,0-1.2-.58h-.08Z"/><path d="M520.4,551.92l1.85-.72a.94.94,0,1,0-.51-1.81l-.15.06-1.85.72a.94.94,0,0,0,.61,1.77Z"/><path d="M514.82,554.1l1.85-.72a.93.93,0,0,0,.62-1.16h0a1,1,0,0,0-1.19-.62H516l-1.84.72a.94.94,0,0,0,.49,1.81Z"/><path d="M509.23,556.29l1.86-.72a.94.94,0,0,0-.62-1.77h-.06l-1.85.72a1,1,0,0,0-.59,1.06.91.91,0,0,0,1.07.73h0Z"/><path d="M503.64,558.46l1.85-.73a.94.94,0,0,0-.51-1.81h0l-.15.06-1.85.72a.94.94,0,0,0,.6,1.78Z"/><path d="M499.24,558.18l-1.85.73a.94.94,0,0,0-.62,1.18h0a1,1,0,0,0,1.18.62l.11-.05,1.85-.73a.93.93,0,1,0-.62-1.76Z"/><path d="M493.66,560.37l-3.72,1.45a1,1,0,0,0-.6,1.06.93.93,0,0,0,1.09.74h.18l3.72-1.46a.93.93,0,0,0-.62-1.76Z"/><path d="M531.71,537,528,538.45a.92.92,0,0,0-.65,1.14h0a.94.94,0,0,0,1.16.65h0a.44.44,0,0,0,.16-.06l3.71-1.45a.91.91,0,1,0-.6-1.71Z"/><path d="M523.08,542.38l1.81-.71a.94.94,0,1,0-.51-1.81l-.15.06-1.85.73a.94.94,0,1,0,.51,1.81l.16-.06Z"/><path d="M517.49,544.56l1.85-.72a.94.94,0,0,0-.62-1.77h-.05l-1.85.73a.94.94,0,1,0,.44,1.83l.12,0h.11Z"/><path d="M511.91,546.74l1.85-.72a1,1,0,0,0,.59-1.06.92.92,0,0,0-1.07-.74h-.2l-1.85.73a.93.93,0,0,0-.61,1.16h0a.94.94,0,0,0,1.18.62h.11Z"/><path d="M506.32,548.93l1.84-.72a.94.94,0,0,0-.61-1.77h-.05l-1.85.72a.94.94,0,1,0,.51,1.81l.16-.06Z"/><path d="M500.73,551.11l1.85-.72a1,1,0,0,0,.6-1.07.92.92,0,0,0-1.08-.73h-.18l-1.85.72a.93.93,0,0,0,.6,1.77Z"/><path d="M495.15,553.29l1.85-.72a1,1,0,0,0,.59-1.05.92.92,0,0,0-1.08-.75l-.19.05-1.84.72a.94.94,0,1,0,.56,1.8Z"/><path d="M487.7,556.21l3.72-1.46a.94.94,0,1,0-.57-1.8h-.11L487,554.51a.93.93,0,0,0-.61,1.16h0a.94.94,0,0,0,1.18.62h.11Z"/><path d="M533.16,540.68l-1.85.72a.93.93,0,0,0,.62,1.76H532l1.85-.72a1,1,0,0,0,.6-1.06.94.94,0,0,0-1.09-.75Z"/><path d="M527.58,542.86l-1.85.72a.94.94,0,0,0,.51,1.81l.15-.06,1.85-.72a.93.93,0,1,0-.6-1.77Z"/><path d="M522,545l-1.85.73a.93.93,0,0,0-.62,1.16h0a.94.94,0,0,0,1.18.62h.11l1.85-.72a1,1,0,0,0,.59-1,.92.92,0,0,0-1.07-.74h0Z"/><path d="M516.4,547.23l-1.85.72a.93.93,0,0,0-.62,1.16h0a1,1,0,0,0,1.19.62h.11l1.85-.72a.94.94,0,0,0-.62-1.77Z"/><path d="M510.82,549.41l-1.85.72a.94.94,0,0,0,.49,1.8h.17l1.85-.72a.93.93,0,1,0-.6-1.77Z"/><path d="M505.23,551.59l-1.84.73A.91.91,0,1,0,504,554h.06l1.85-.72a1,1,0,0,0,.6-1,.94.94,0,0,0-1.09-.75Z"/><path d="M499.64,553.78l-1.85.72a.93.93,0,1,0,.62,1.76h.06l1.85-.72a.94.94,0,0,0-.62-1.77Z"/><path d="M489.13,559.89l5.58-2.18a1,1,0,0,0,.6-1.06.93.93,0,0,0-1.07-.75.6.6,0,0,0-.19.06l-5.59,2.18a.94.94,0,1,0,.44,1.83l.12,0h.11Z"/><path d="M530.22,533.24l-1.85.72a.94.94,0,0,0,.62,1.77h.06l1.84-.72a.94.94,0,1,0-.44-1.83l-.12,0h-.11Z"/><path d="M524.64,535.42l-1.85.72a1,1,0,0,0-.6,1.06.93.93,0,0,0,1.09.74h0l.17-.05,1.85-.72a.93.93,0,0,0-.6-1.76Z"/><path d="M519.05,537.61l-1.85.72a.91.91,0,1,0,.61,1.71h.06l1.85-.73a.92.92,0,0,0,.65-1.14h0a.94.94,0,0,0-1.16-.65h0a.44.44,0,0,0-.16.06Z"/><path d="M512.29,542.26l1.85-.72a1,1,0,0,0,.66-1.16.94.94,0,0,0-1.16-.65l-.07,0h-.11l-1.85.72a1,1,0,0,0-.59,1.06.92.92,0,0,0,1.07.74h.2Z"/><path d="M506.69,544.44l1.86-.72a.94.94,0,1,0-.44-1.83l-.12,0h-.11l-1.86.68a1,1,0,0,0-.6,1.06.94.94,0,0,0,1.06.79A.75.75,0,0,0,506.69,544.44Z"/><path d="M501.11,546.61l1.85-.73a.92.92,0,0,0,.65-1.14h0a.94.94,0,0,0-1.16-.65h0a.44.44,0,0,0-.16.06l-1.84.72a1,1,0,0,0-.6,1,.93.93,0,0,0,1.07.75Z"/><path d="M495.53,548.81l1.85-.72a.94.94,0,0,0-.62-1.77h-.05l-1.86.72a1,1,0,0,0-.59,1.06.94.94,0,0,0,1.08.74Z"/><path d="M486.21,552.45l5.58-2.18a.93.93,0,0,0-.6-1.77h-.06l-5.59,2.18a.94.94,0,0,0,.61,1.77Z"/><path d="M439.63,572.81h-1.16V540.46a4.12,4.12,0,0,0-4.13-4.1H386.16a4.12,4.12,0,0,0-4.12,4.1h0v32.35h-1a1,1,0,0,0-1,1v2.07a3.07,3.07,0,0,0,3.06,3.06H437.5a3.06,3.06,0,0,0,3.07-3h0V573.8A1,1,0,0,0,439.63,572.81Zm-53.45-34.49h48.17a2.16,2.16,0,0,1,2.17,2.14v32.35H384V540.46a2.14,2.14,0,0,1,2.14-2.14h0Zm52.46,37.54a1.11,1.11,0,0,1-1.12,1.1H383.09a1.11,1.11,0,0,1-1.11-1.1v-1.08H404.1v.07a1,1,0,0,0,1,1h10.47a1,1,0,0,0,1-1v-.07h22.1Z"/><path d="M433.34,540.5H387.28a1,1,0,0,0-1,1v28.1a1,1,0,0,0,1,1h46.06a1,1,0,0,0,1-1V541.48A1,1,0,0,0,433.34,540.5Zm-1,28.09H388.27V542.46h44.08Z"/><path d="M399.33,497.47h-1.15V465.12a4.11,4.11,0,0,0-4.1-4.1h-48.2a4.11,4.11,0,0,0-4.12,4.08v32.37h-1.07a1,1,0,0,0-1,1v2.06a3.06,3.06,0,0,0,3.08,3.06h54.44a3.06,3.06,0,0,0,3.08-3.06h0v-2.06A1,1,0,0,0,399.33,497.47ZM345.88,463h48.17a2.16,2.16,0,0,1,2.17,2.14h0v32.35h-52.5V465.12a2.16,2.16,0,0,1,2.16-2.15Zm52.45,37.54a1.11,1.11,0,0,1-1.11,1.1H342.79a1.11,1.11,0,0,1-1.11-1.1v-1.08H363.8v.07a1,1,0,0,0,1,1h10.47a1,1,0,0,0,1-1v-.07h22.07Z"/><path d="M393,465.16H347a1,1,0,0,0-1,1v28.1a1,1,0,0,0,1,1h46a1,1,0,0,0,1-1V466.14A1,1,0,0,0,393,465.16Zm-1,28.09H348V467.11h44Z"/><path d="M535.66,391.14,488,393.84c-2.08.11-3.65,2.15-3.52,4.55l2.28,39.71c.14,2.4,1.92,4.26,4,4.14l16.24-.92-.35,6.83-1.2.07a1.06,1.06,0,0,0-.73,1.29,1,1,0,0,0,.66.71h.21l1.92-.11h0l15.31-.86h0l1.9-.11a1,1,0,0,0,.85-.89,1,1,0,0,0-.79-1.16h-.2l-1.16.06-1.12-6.75,16.17-.91a4.09,4.09,0,0,0,3.51-4.56l-2.27-39.7a4.07,4.07,0,0,0-4.05-4.09Zm-27.35,56.91.35-6.83,11.82-.67,1.13,6.75Zm30-10.5-47.69,2.68a2.13,2.13,0,0,1-2.1-2.16h0l-.12-2.27,51.65-3,.14,2.28a2.15,2.15,0,0,1-1.84,2.42h0Zm1.58-6.75-51.65,3-2-35.42a2.14,2.14,0,0,1,1.84-2.39l47.68-2.7a2.16,2.16,0,0,1,2.11,2.17Z"/><path d="M513.43,437.67l1.89-.11a1.06,1.06,0,0,0,.07-2.06h-.21l-1.89.11a1.06,1.06,0,0,0-.07,2.06Z"/><path d="M534.91,395.58l-45.78,2.59a1,1,0,0,0-.83,1.09l1.76,30.92a1,1,0,0,0,1,1l45.75-2.59a1,1,0,0,0,.84-1.09l-1.83-30.92A1,1,0,0,0,534.91,395.58Zm.94,31-44.06,2.51-1.67-28.85,44-2.49Z"/><path d="M335.51,529.81l-41.8-1.7a3.28,3.28,0,0,0-3.42,3.11h0l-1.23,29.91a3.26,3.26,0,0,0,3.11,3.4h0l14.24.58-.85,5.08h-1.07a.79.79,0,0,0-.75.83.8.8,0,0,0,.67.74h0l1.68.06h0l13.41.55h0l1.66.07a.78.78,0,0,0,.08-1.56h-1l-.44-5.14,14.17.57a3.29,3.29,0,0,0,3.43-3.13l1.23-29.9a3.3,3.3,0,0,0-3.1-3.48Zm-28.43,40.5.85-5.07,10.36.41.43,5.14Zm27-5.52-41.8-1.71a1.71,1.71,0,0,1-1.65-1.75h0l.06-1.71,45.24,1.84-.07,1.72a1.73,1.73,0,0,1-1.79,1.56Zm1.92-4.94L290.75,558l1.11-26.68a1.71,1.71,0,0,1,1.78-1.64h0l41.78,1.7a1.74,1.74,0,0,1,1.66,1.79h0Z"/><path d="M312.37,562.87l1.66.06a.8.8,0,0,0,.27-1.57h-.19l-1.66-.06a.77.77,0,0,0-.82.72v0a.78.78,0,0,0,.74.82h0Z"/><path d="M334.49,533l-40.07-1.63a.79.79,0,0,0-.81.74l-1,23.29a.79.79,0,0,0,.75.81l40.1,1.64a.82.82,0,0,0,.82-.75l1-23.28a.81.81,0,0,0-.76-.82Zm-1.68,23.25-38.59-1.57.9-21.74,38.58,1.58Z"/><path d="M-22.48,453.57-36.79,461a7.93,7.93,0,0,0-3.39,10.69l0,0h0l12.91,24.35a16.37,16.37,0,0,0,21.32,7,16,16,0,0,0,7.34-21.4h0c-.06-.12-.12-.25-.19-.37L-11.67,457a8,8,0,0,0-10.78-3.45Zm-5.67,4.86,6.4-3.35a6.34,6.34,0,0,1,2.73-.72l6.82,12.92a4.5,4.5,0,0,1-1.87,6.08l0,0-4.81,2.52-2.63-4.9a2.63,2.63,0,0,0,.45-3l-1.67-3.16a2.65,2.65,0,0,0-2.77-1.36Zm3.9,7.17,1.62,3.06a1,1,0,0,1-.35,1.28,1,1,0,0,1-1.31-.38l-1.64-3.11a1,1,0,0,1,.43-1.28A1,1,0,0,1-24.25,465.6Zm-13.91-1.2A6.36,6.36,0,0,1-36,462.57l6.41-3.34,2.62,4.94a2.6,2.6,0,0,0-.45,3l1.67,3.16A2.62,2.62,0,0,0-23,471.72l2.62,4.94-4.81,2.52a4.57,4.57,0,0,1-6.13-1.9ZM-.41,482.13a14.25,14.25,0,0,1-5.86,19.28l-.08,0a14.41,14.41,0,0,1-19.43-5.92l-12.91-24.45a6.21,6.21,0,0,1-.44-4.85l6.27,11.86a6.24,6.24,0,0,0,8.39,2.6l11.1-5.79a6.19,6.19,0,0,0,2.61-8.36h0L-17,454.69a6.33,6.33,0,0,1,3.78,3.11Z"/><path d="M178.55,464.5l-16-2.2a8,8,0,0,0-9,6.81l-3.78,27.24a16.08,16.08,0,0,0,31.77,5h0a1.06,1.06,0,0,1,.07-.46l3.8-27.36a8,8,0,0,0-6.84-9Zm-7.45.67,7.17,1a6.26,6.26,0,0,1,2.63,1l-2,14.47a4.55,4.55,0,0,1-5.12,3.85l-5.4-.74.77-5.55A2.63,2.63,0,0,0,171.3,477l.48-3.52a2.58,2.58,0,0,0-1.46-2.71Zm-1,8.06-.46,3.43a1,1,0,0,1-1,.83.94.94,0,0,1-.85-1v-.05l.48-3.49a.93.93,0,1,1,1.83.28Zm-10.59-9a6.38,6.38,0,0,1,2.81-.25l7.17,1-.77,5.54a2.65,2.65,0,0,0-2.14,2.21l-.49,3.53a2.63,2.63,0,0,0,1.46,2.71l-.77,5.55-5.4-.74a4.52,4.52,0,0,1-3.88-5.07h0Zm20.36,36.28a14.37,14.37,0,1,1-28.5-3.77h0l3.8-27.36a6.28,6.28,0,0,1,2.48-4.2l-1.81,13.28a6.18,6.18,0,0,0,5.26,7h0l12.41,1.71a6.21,6.21,0,0,0,7-5.28h0l1.85-13.26a6.32,6.32,0,0,1,1.24,4.71Z"/><path d="M167.1,488.12a2.61,2.61,0,1,0,2.25,3,2.61,2.61,0,0,0-2.25-3Zm-.49,3.53a.95.95,0,1,1,1.07-.81h0A1,1,0,0,1,166.61,491.65Z"/><path d="M118.58,415.36,70.34,402.2a4,4,0,0,0-4.83,2.8l-5.28,19.16A4,4,0,0,0,63,428.92l48.23,13.15a4,4,0,0,0,4.84-2.73l5.29-19.17A4,4,0,0,0,118.58,415.36Zm-6.87,24.91L63.48,427.13A2.07,2.07,0,0,1,62,424.62v0h0l5.27-19.16A2.08,2.08,0,0,1,69.83,404h0l48.23,13.19a2,2,0,0,1,1.46,2.42.29.29,0,0,1,0,.09h0l-5.28,19.15a2.06,2.06,0,0,1-2.53,1.4Z"/><path d="M100.8,431.1l-23.2-6.33a1,1,0,0,0-1.12.5.93.93,0,0,0,.43,1.24.49.49,0,0,0,.17.06l23.21,6.33a.93.93,0,0,0,1.12-.71.92.92,0,0,0-.54-1.07Z"/><path d="M73.76,423.73l-1.92-.53a1,1,0,0,0-1.11.5.93.93,0,0,0,.43,1.24.49.49,0,0,0,.17.06l1.91.53a1,1,0,0,0,1.12-.5.93.93,0,0,0-.43-1.24A.49.49,0,0,0,73.76,423.73Z"/><path d="M68,422.14l-1.92-.53a1,1,0,0,0-1.11.5.93.93,0,0,0,.43,1.24.49.49,0,0,0,.17.06l1.91.52a.94.94,0,0,0,1.24-.47.93.93,0,0,0-.47-1.24l-.09,0Z"/><path d="M112.35,434.25l-1.92-.53a.93.93,0,0,0-.57,1.78h0l1.92.53a.93.93,0,0,0,.57-1.78Z"/><path d="M106.56,432.67l-1.91-.53a.94.94,0,0,0-.59,1.79h.07l1.92.52a1,1,0,0,0,1.22-.55.94.94,0,0,0-.55-1.21h-.16Z"/><path d="M113.41,430.43l-3.86-1.05a1,1,0,0,0-1.33.49,1,1,0,0,0,.23,1.15,1,1,0,0,0,.59.17l3.84,1a.94.94,0,0,0,.58-1.78Z"/><path d="M105.67,428.32l-1.9-.51a.93.93,0,0,0-.57,1.77h.06l1.93.52a1,1,0,0,0,1.18-.76v-.06A1,1,0,0,0,105.67,428.32Z"/><path d="M97.46,428.06l1.92.53a.93.93,0,1,0,.57-1.78h0l-2-.54a1,1,0,0,0-1.12.49A.91.91,0,0,0,97.3,428h0Z"/><path d="M91.67,426.44l1.92.53a.93.93,0,0,0,1.12-.71.92.92,0,0,0-.54-1.07h-.06l-1.92-.52a1,1,0,0,0-1.11.49.9.9,0,0,0,.4,1.22l0,0A.42.42,0,0,0,91.67,426.44Z"/><path d="M85.88,424.87l1.92.52a.94.94,0,0,0,.67-1.76h-.15l-1.92-.52a1,1,0,0,0-1.34,1.48.87.87,0,0,0,.23.16,1,1,0,0,0,.59.16Z"/><path d="M80.1,423.29l1.92.53a.93.93,0,0,0,.56-1.78h0l-1.91-.52a.93.93,0,0,0-.59,1.77Z"/><path d="M76.74,420.44l-1.92-.53a1,1,0,0,0-1.11.5.93.93,0,0,0,.43,1.24.49.49,0,0,0,.17.06l1.92.53a1,1,0,0,0,1.11-.5.93.93,0,0,0-.43-1.24A.49.49,0,0,0,76.74,420.44Z"/><path d="M71,418.86l-3.85-1.05a.93.93,0,1,0-.57,1.78h0l3.85,1.05a.94.94,0,0,0,.68-1.76h0Z"/><path d="M115.51,422.8l-3.88-1.05a1,1,0,0,0-1.22.54.94.94,0,0,0,.55,1.21l.15.05L115,424.6a1,1,0,0,0,1.12-.5.92.92,0,0,0-.41-1.23h0A.6.6,0,0,0,115.51,422.8Z"/><path d="M105.35,422l1.92.52a.93.93,0,0,0,.57-1.78h0l-1.92-.53a1,1,0,0,0-1.11.5.93.93,0,0,0,.4,1.24h0Z"/><path d="M99.57,420.39l1.91.52a.93.93,0,0,0,.58-1.77H102l-1.91-.52a1,1,0,0,0-1.13.49.94.94,0,0,0,.44,1.25Z"/><path d="M93.75,418.82l1.92.51a.94.94,0,0,0,1.11-.48,1,1,0,0,0-.54-1.29h-.06L94.27,417a1,1,0,0,0-1.38.27,1,1,0,0,0,.27,1.37,1,1,0,0,0,.59.17Z"/><path d="M88,417.2l1.91.52a.93.93,0,1,0,.57-1.78h0l-1.92-.52a.93.93,0,0,0-1.21.53h0a.92.92,0,0,0,.51,1.2h0Z"/><path d="M82.21,415.66l1.9.52a.94.94,0,0,0,.58-1.78h0l-1.92-.52a1,1,0,0,0-1.12.49.91.91,0,0,0,.42,1.23h0Z"/><path d="M76.41,414.08l1.92.52a1,1,0,0,0,1.11-.49.93.93,0,0,0-.42-1.25h0l-.16-.06-1.92-.52a1,1,0,0,0-1.11.49.9.9,0,0,0,.4,1.22l0,0Z"/><path d="M68.7,412l3.84,1a.94.94,0,0,0,.58-1.78h-.06l-3.85-1.05a1,1,0,0,0-1.12.5.91.91,0,0,0,.42,1.23h0Z"/><path d="M114.45,426.61l-1.92-.52a1,1,0,0,0-1.11.49.93.93,0,0,0,.43,1.24l.17.07,1.92.52a1,1,0,0,0,1.21-.54.92.92,0,0,0-.51-1.2h0Z"/><path d="M108.65,425l-1.91-.51a1,1,0,0,0-1.22.54.94.94,0,0,0,.55,1.21l.16.05,1.9.52a.94.94,0,0,0,.59-1.78Z"/><path d="M102.88,423.46l-1.92-.52a.94.94,0,0,0-.81,1.7l.14.05.15.05,1.92.52a1,1,0,0,0,1.11-.5.92.92,0,0,0-.41-1.23h0Z"/><path d="M97.09,421.88l-1.92-.52a1,1,0,0,0-1.11.49.9.9,0,0,0,.4,1.22l0,0a.44.44,0,0,0,.16.06l1.92.53a1,1,0,0,0,1.11-.5.91.91,0,0,0-.42-1.23h0Z"/><path d="M91.3,420.3l-1.91-.52a1,1,0,0,0-1.12.49.9.9,0,0,0,.4,1.22l0,0a.49.49,0,0,0,.17.06l1.9.57a.94.94,0,1,0,.67-1.76h-.15Z"/><path d="M85.51,418.72l-1.91-.51a.94.94,0,0,0-1.24.47.93.93,0,0,0,.47,1.24l.09,0h.16l1.92.53a1,1,0,1,0,1.1-1.64,1,1,0,0,0-.59-.17Z"/><path d="M79.72,417.2l-1.92-.53a.93.93,0,0,0-.57,1.78h.06l1.92.53a1,1,0,0,0,1.11-.5.93.93,0,0,0-.43-1.24A.47.47,0,0,0,79.72,417.2Z"/><path d="M67.63,415.8l5.79,1.57a.94.94,0,1,0,.68-1.76h-.16L68.15,414a1,1,0,1,0-1.27,1.55l.12.08a1.12,1.12,0,0,0,.59.17Z"/><path d="M116.6,418.91l-1.92-.52a.94.94,0,0,0-1.11.49,1,1,0,0,0,.53,1.29h.06l1.92.52a1,1,0,1,0,1.34-1.48.87.87,0,0,0-.23-.16,1,1,0,0,0-.59-.16Z"/><path d="M110.79,417.34l-1.92-.53a.93.93,0,0,0-1.12.71.92.92,0,0,0,.54,1.07h.06l1.92.52a1,1,0,0,0,1.12-.49.91.91,0,0,0-.42-1.23h0A.47.47,0,0,0,110.79,417.34Z"/><path d="M105,415.76l-1.91-.54a1,1,0,0,0-1.13.5.94.94,0,0,0,.44,1.24h0l.17.06,1.92.52a.93.93,0,0,0,.55-1.77Z"/><path d="M96.78,415.45l1.92.52a.93.93,0,0,0,.57-1.77h-.06l-1.91-.53a1,1,0,0,0-1.12.5.93.93,0,0,0,.43,1.24Z"/><path d="M91,413.88l1.91.52a.94.94,0,0,0,.59-1.78h-.07l-1.92-.51a.94.94,0,0,0-1.11.48,1,1,0,0,0,.54,1.3Z"/><path d="M85.21,412.26l1.91.52a.93.93,0,1,0,.57-1.78h0l-1.92-.52a.93.93,0,0,0-.58,1.77Z"/><path d="M79.41,410.72l1.92.52a1,1,0,0,0,1.11-.49.9.9,0,0,0-.4-1.22l0,0-.16-.07-1.92-.52a1,1,0,0,0-1.11.49.93.93,0,0,0,.42,1.25h0Z"/><path d="M69.76,408.09l5.79,1.57a.94.94,0,0,0,.81-1.7l-.14,0-.15-.05-5.8-1.53a1,1,0,0,0-1.21.54.92.92,0,0,0,.51,1.2h0l.16.05Z"/><path d="M219.4,529.19l-46.55,18.2a3.93,3.93,0,0,0-2.23,5.07L177.93,571a4,4,0,0,0,5.11,2.21L229.59,555a3.94,3.94,0,0,0,2.22-5.08l-7.31-18.5A4,4,0,0,0,219.4,529.19Zm9.45,24-46.54,18.19a2.06,2.06,0,0,1-2.63-1.12l-7.3-18.48a2.05,2.05,0,0,1,1.16-2.67h0L220.08,531a2.06,2.06,0,0,1,2.67,1.15l7.31,18.43a2.05,2.05,0,0,1-1.16,2.67Z"/><path d="M214.64,552.39l-22.4,8.76a1,1,0,0,0-.6,1.05.92.92,0,0,0,1.08.75h0l.18-.06,22.39-8.75A.94.94,0,0,0,216,553v0a1,1,0,0,0-1.17-.65h-.15Z"/><path d="M188.53,562.6l-1.85.72a1,1,0,0,0,.67,1.78h.06l1.85-.72a.95.95,0,0,0-.6-1.8Z"/><path d="M183,564.78l-1.85.72a1,1,0,0,0-.6,1.06.93.93,0,0,0,1.1.74h.17l1.84-.72a.93.93,0,0,0-.6-1.77Z"/><path d="M225.77,548l-1.84.73a1,1,0,0,0-.66,1.16,1,1,0,0,0,1.17.65l.15-.06,1.85-.73a.94.94,0,1,0-.51-1.81h0A.44.44,0,0,0,225.77,548Z"/><path d="M220.19,550.22l-1.85.73a.94.94,0,0,0,.51,1.81l.16-.06,1.85-.73a.94.94,0,0,0-.51-1.81h0Z"/><path d="M224.32,544.35l-3.71,1.46a.93.93,0,0,0,.6,1.77h.06L225,546.1a.94.94,0,1,0-.51-1.81h0Z"/><path d="M216.85,547.28,215,548a.93.93,0,0,0,.6,1.76h.06l1.87-.72a.94.94,0,1,0-.62-1.78h-.09Z"/><path d="M210.11,551.92l1.85-.72a1,1,0,0,0,.66-1.16.94.94,0,0,0-1.16-.65l-.07,0h-.11l-1.85.72a1,1,0,0,0-.59,1.07.93.93,0,0,0,1.09.73Z"/><path d="M204.52,554.1l1.85-.72a.91.91,0,1,0-.61-1.71h-.06l-1.85.72a1,1,0,0,0-.6,1.07,1,1,0,0,0,1.1.73Z"/><path d="M198.93,556.29l1.85-.72a.94.94,0,1,0-.51-1.81h0a.44.44,0,0,0-.16.06l-1.84.72a.93.93,0,1,0,.61,1.76Z"/><path d="M193.35,558.46l1.85-.73a.93.93,0,1,0-.62-1.76h-.05l-1.86.72a.94.94,0,0,0,.62,1.78h.06Z"/><path d="M188.94,558.18l-1.85.73a.94.94,0,0,0-.62,1.18h0a1,1,0,0,0,1.18.62l.12-.05,1.84-.73a.93.93,0,0,0,.62-1.16h0a.94.94,0,0,0-1.18-.62h0Z"/><path d="M183.36,560.37l-3.72,1.45a.94.94,0,0,0,.49,1.8h.18l3.72-1.46a.93.93,0,0,0,.62-1.16h0a.94.94,0,0,0-1.18-.62h-.11Z"/><path d="M221.41,537l-3.72,1.46a.91.91,0,1,0,.61,1.71h.06l3.72-1.45a.91.91,0,0,0-.5-1.75Z"/><path d="M212.78,542.38l1.85-.73a.94.94,0,1,0-.51-1.81.44.44,0,0,0-.16.06l-1.85.73a.94.94,0,0,0,.61,1.77Z"/><path d="M207.2,544.56l1.85-.72a.94.94,0,1,0-.62-1.78h-.06l-1.85.73a1,1,0,0,0-.66,1.16.94.94,0,0,0,1.16.65l.07,0Z"/><path d="M201.6,546.74l1.85-.72a.93.93,0,1,0-.61-1.76h-.05l-1.85.73a.92.92,0,0,0-.66,1.12v0a.94.94,0,0,0,1.16.65h0Z"/><path d="M196.07,548.93l1.85-.72a1,1,0,0,0,.6-1.07.94.94,0,0,0-1.08-.74.6.6,0,0,0-.19.06l-1.84.72a.93.93,0,0,0,.6,1.76Z"/><path d="M190.44,551.11l1.85-.72a1,1,0,0,0,.59-1.07.93.93,0,0,0-1.09-.73h-.18l-1.85.72a1,1,0,0,0-.66,1.16.94.94,0,0,0,1.16.65l.07,0Z"/><path d="M184.85,553.29l1.85-.72a1,1,0,0,0,.6-1.05.92.92,0,0,0-1.08-.75h0l-.18.05-1.88.72a.94.94,0,0,0,.51,1.81.44.44,0,0,0,.16-.06Z"/><path d="M177.4,556.21l3.72-1.46a.94.94,0,1,0-.56-1.8h-.12l-3.71,1.51a.94.94,0,1,0,.51,1.81Z"/><path d="M222.89,540.68l-1.84.72a.94.94,0,0,0,.51,1.81l.15-.06,1.85-.72a.93.93,0,0,0-.6-1.77Z"/><path d="M217.28,542.86l-1.86.72a.94.94,0,0,0,.62,1.77h.06l1.83-.7a1,1,0,0,0,.59-1.06.92.92,0,0,0-1.08-.75Z"/><path d="M211.69,545l-1.85.73a.93.93,0,0,0-.62,1.16h0a1,1,0,0,0,1.18.62h.12l1.84-.72a.91.91,0,1,0-.61-1.71Z"/><path d="M206.11,547.23l-1.85.72a1,1,0,0,0-.66,1.16,1,1,0,0,0,1.17.65l.15-.06,1.85-.72a.93.93,0,0,0-.6-1.77Z"/><path d="M200.52,549.41l-1.85.72a.94.94,0,0,0,.61,1.77h.06l1.85-.72a1,1,0,0,0,.59-1.06.93.93,0,0,0-1.09-.74h0Z"/><path d="M194.93,551.59l-1.85.73a1,1,0,0,0-.59,1,1,1,0,0,0,1.21.71h.06l1.84-.72a.93.93,0,0,0-.61-1.76Z"/><path d="M189.35,553.78l-1.85.72a.94.94,0,0,0,.49,1.8h.17l1.86-.72a.94.94,0,0,0-.61-1.77Z"/><path d="M178.86,559.89l5.58-2.18a1,1,0,0,0,.59-1.06.92.92,0,0,0-1.07-.74h0l-.19.05-5.57,2.18a.94.94,0,1,0,.44,1.83l.12,0h.12Z"/><path d="M219.91,533.24l-1.84.72a1,1,0,0,0-.6,1.06,1,1,0,0,0,1.09.74h.17l1.85-.72a.94.94,0,0,0,.47-1.24.93.93,0,0,0-1.08-.53Z"/><path d="M214.34,535.42l-1.85.72a.94.94,0,0,0-.47,1.24.93.93,0,0,0,1.08.53h.06l1.85-.72a.94.94,0,1,0-.51-1.81h0Z"/><path d="M208.75,537.61l-1.85.72a1,1,0,0,0-.6,1,.94.94,0,0,0,1.09.75h.19l1.84-.73a.93.93,0,0,0,.62-1.16h0a.94.94,0,0,0-1.18-.62h0Z"/><path d="M202,542.26l1.86-.72a.94.94,0,1,0-.44-1.83l-.12,0h-.12l-1.84.72a1,1,0,0,0-.6,1.06,1,1,0,0,0,1.09.74Z"/><path d="M196.4,544.44l1.85-.72a.94.94,0,1,0-.51-1.81l-.16.06-1.85.72a1,1,0,0,0-.59,1.06.93.93,0,0,0,1.07.75A.6.6,0,0,0,196.4,544.44Z"/><path d="M190.82,546.61l1.84-.73a.91.91,0,1,0-.61-1.71H192l-1.86.72a1,1,0,0,0-.6,1,.94.94,0,0,0,1.09.75Z"/><path d="M185.23,548.81l1.85-.72a.94.94,0,1,0-.44-1.83l-.12,0h-.11l-1.85.72a1,1,0,0,0-.6,1.06,1,1,0,0,0,1.09.74Z"/><path d="M175.91,552.45l5.59-2.18a1,1,0,0,0,.59-1.06.93.93,0,0,0-1.09-.74h-.17l-5.62,2.18a.94.94,0,0,0-.58,1.2.93.93,0,0,0,1.19.58Z"/><path d="M129.32,572.81h-1.13V540.46a4.11,4.11,0,0,0-4.12-4.1H75.87a4.12,4.12,0,0,0-4.13,4.1h0v32.35H70.68a1,1,0,0,0-1,1v2.07a3.06,3.06,0,0,0,3.06,3.06H127.2a3.07,3.07,0,0,0,3.07-3h0V573.8A1,1,0,0,0,129.32,572.81ZM75.87,538.32H124a2.14,2.14,0,0,1,2.15,2.13h0v32.35H73.73V540.46a2.14,2.14,0,0,1,2.14-2.14Zm52.45,37.54a1.11,1.11,0,0,1-1.11,1.1H72.8a1.1,1.1,0,0,1-1.11-1.09h0v-1.08H93.81a.09.09,0,0,0,0,.07,1,1,0,0,0,1,1h10.47a1,1,0,0,0,1-1v-.07h22.11Z"/><path d="M123.05,540.5H77a1,1,0,0,0-1,1v28.1a1,1,0,0,0,1,1h46.07a1,1,0,0,0,1-1V541.48a1,1,0,0,0-1-1Zm-1,28.09H78V542.46h44.08Z"/><path d="M89,497.47H87.89V465.12a4.11,4.11,0,0,0-4.12-4.1H35.57a4.11,4.11,0,0,0-4.11,4.09h0v32.35H30.39a1,1,0,0,0-1,1v2.06a3,3,0,0,0,2.94,3.06H86.91a3.06,3.06,0,0,0,3.09-3v0h0v-2.06A1,1,0,0,0,89,497.47ZM35.58,463H83.76a2.16,2.16,0,0,1,2.16,2.15V497.5H33.43V465.12A2.15,2.15,0,0,1,35.58,463ZM88,500.51a1.12,1.12,0,0,1-1.12,1.1H32.49a1.11,1.11,0,0,1-1.11-1.1v-1.08H53.51v.07a1,1,0,0,0,1,1H64.94a1,1,0,0,0,1-1v-.07H88Z"/><path d="M82.74,465.16H36.68a1,1,0,0,0-1,1v28.1a1,1,0,0,0,1,1H82.74a1,1,0,0,0,1-1V466.14A1,1,0,0,0,82.74,465.16Zm-1,28.09H37.67V467.11H81.75Z"/><path d="M225.37,391.14l-47.69,2.7c-2.07.11-3.64,2.15-3.5,4.55l2.27,39.71c.13,2.4,1.93,4.26,4,4.14l16.24-.92-.35,6.83-1.2.07a1,1,0,1,0-.07,2h.21l1.9-.11h0l15.31-.86h0l1.89-.11a1.06,1.06,0,0,0,.73-1.29,1,1,0,0,0-.66-.71h-.21l-1.14.06-1.1-6.75,16.16-.91a4.1,4.1,0,0,0,3.52-4.56l-2.28-39.7C229.23,392.87,227.44,391,225.37,391.14Zm-27.31,56.91.35-6.83,11.83-.67,1.12,6.75Zm30-10.5-47.68,2.68a2.13,2.13,0,0,1-2.1-2.16h0l-.13-2.27,51.66-3,.13,2.28a2.17,2.17,0,0,1-1.84,2.42h0Zm1.59-6.75-51.66,3-2-35.42a2.16,2.16,0,0,1,1.84-2.39l47.69-2.7a2.15,2.15,0,0,1,2.09,2.17Z"/><path d="M203.12,437.67l1.9-.11a1.05,1.05,0,0,0,.07-2.06h-.21l-1.89.11a1.05,1.05,0,0,0-.07,2.06Z"/><path d="M224.61,395.58l-45.77,2.59a1,1,0,0,0-.84,1.09l1.76,30.92a1,1,0,0,0,1,1l45.79-2.59a1,1,0,0,0,.83-1.09l-1.76-30.92a1,1,0,0,0-1-1Zm.94,31-44.05,2.51-1.65-28.83,44-2.51Z"/><path d="M25.2,529.81l-41.8-1.7a3.28,3.28,0,0,0-3.4,3.12h0l-1.24,29.91a3.29,3.29,0,0,0,3.16,3.4l14.23.58-.86,5.08h-1a.79.79,0,0,0-.83.75h0a.8.8,0,0,0,.75.82h0l1.68.06h0l13.41.55h0l1.66.07a.78.78,0,0,0,0-1.55H10l-.43-5.14,14.16.57a3.28,3.28,0,0,0,3.42-3.11h0l1.24-29.9a3.3,3.3,0,0,0-3.09-3.48h0Zm-28.44,40.5.86-5.07L8,565.65l.43,5.14Zm27-5.52L-18,563a1.71,1.71,0,0,1-1.66-1.76h0l.08-1.72,45.23,1.84-.07,1.72a1.72,1.72,0,0,1-1.8,1.64h0Zm2-4.94L-19.5,558l1.1-26.68a1.74,1.74,0,0,1,1.79-1.64h0l41.79,1.7a1.72,1.72,0,0,1,1.65,1.78h0Z"/><path d="M2.08,562.87l1.66.06a.8.8,0,0,0,.81-.61.78.78,0,0,0-.5-1l0,0H3.81l-1.65-.06a.78.78,0,0,0-.83.71v0a.79.79,0,0,0,.75.82h0Z"/><path d="M24.21,533l-40.1-1.63a.8.8,0,0,0-.82.74l-1,23.29a.79.79,0,0,0,.75.81l40.17,1.64a.82.82,0,0,0,.81-.75l1-23.28a.78.78,0,0,0-.74-.82h-.07Zm-1.69,23.25-38.58-1.57.89-21.74,38.58,1.58Z"/><path d="M494.66,258l-14.28,7.47a7.94,7.94,0,0,0-3.41,10.7l0,.05,12.92,24.35a16.36,16.36,0,0,0,21.31,7.05,16,16,0,0,0,7.37-21.39v0l-.19-.39-12.92-24.45a8,8,0,0,0-10.8-3.36h0ZM489,262.86l6.41-3.35a6.3,6.3,0,0,1,2.72-.72L505,271.71a4.52,4.52,0,0,1-1.9,6.09h0l-4.82,2.52-2.62-4.94a2.61,2.61,0,0,0,.44-3l-1.66-3.16a2.65,2.65,0,0,0-2.78-1.35Zm3.91,7.15,1.61,3.06a.94.94,0,1,1-1.64.9l-1.65-3.11a.94.94,0,0,1,.33-1.29h0a1,1,0,0,1,1.29.33l.06.11ZM479,268.8a6.1,6.1,0,0,1,2.13-1.81l6.41-3.35,2.62,4.94a2.61,2.61,0,0,0-.44,3l1.66,3.15a2.64,2.64,0,0,0,2.77,1.35l2.62,4.94L492,283.58a4.56,4.56,0,0,1-6.13-1.89Zm37.75,17.74a14.24,14.24,0,0,1-5.4,19.39l-.1.05a14.41,14.41,0,0,1-19.56-5.46c-.1-.19-.21-.38-.3-.58l-12.92-24.45a6.3,6.3,0,0,1-.44-4.85l6.27,11.86a6.24,6.24,0,0,0,8.4,2.59l11.08-5.79a6.16,6.16,0,0,0,2.62-8.3l-6.27-11.86a6.3,6.3,0,0,1,3.76,3.12Z"/><path d="M499.17,283.84a2.62,2.62,0,0,0-1.1,3.54h0a2.65,2.65,0,0,0,3.56,1.09,2.6,2.6,0,0,0,1.1-3.52h0A2.65,2.65,0,0,0,499.17,283.84Zm1.67,3.16a.95.95,0,1,1,.4-1.28h0a1,1,0,0,1-.4,1.27Z"/><path d="M635.76,219.79l-48.28-13.16a4,4,0,0,0-4.84,2.75l-5.24,19.14a3.93,3.93,0,0,0,2.75,4.81l48.24,13.16a4,4,0,0,0,4.84-2.75l5.28-19.16A4,4,0,0,0,635.76,219.79Zm-6.88,24.91-48.23-13.15a2,2,0,0,1-1.46-2.42.29.29,0,0,1,0-.09h0l5.29-19.15a2.05,2.05,0,0,1,2.53-1.44l48.22,13.16a2.05,2.05,0,0,1,1.44,2.52h0l-5.27,19.16A2.08,2.08,0,0,1,628.88,244.7Z"/><path d="M618,235.53l-23.21-6.33a1,1,0,0,0-1.11.5.91.91,0,0,0,.42,1.23h0l.16.06,23.21,6.33a1,1,0,0,0,1.11-.49.9.9,0,0,0-.4-1.22l0,0Z"/><path d="M590.93,228.15l-1.92-.52a1,1,0,0,0-1.12.49.93.93,0,0,0,.42,1.25h0l.17.06,1.92.52a.93.93,0,0,0,.58-1.77Z"/><path d="M585.13,226.54l-1.91-.51a.94.94,0,0,0-.58,1.78h.06l1.92.52a1,1,0,1,0,1.1-1.64A1,1,0,0,0,585.13,226.54Z"/><path d="M622.83,232.75l-1.9-.52a1,1,0,0,0-1.11.5.92.92,0,0,0,.41,1.23h0a.49.49,0,0,0,.17.06l2,.53a.92.92,0,0,0,1.14-.63h0a.61.61,0,0,0,0-.19A.94.94,0,0,0,622.83,232.75Z"/><path d="M614.63,232.47l1.91.52a.93.93,0,0,0,.57-1.77h-.06l-1.9-.53a1,1,0,0,0-1.13.5.94.94,0,0,0,.44,1.24h0Z"/><path d="M608.84,230.88l1.92.51a.94.94,0,0,0,.67-1.75h-.16l-1.92-.53a1,1,0,0,0-1.1,1.64A1,1,0,0,0,608.84,230.88Z"/><path d="M603.05,229.3l1.91.52a1,1,0,0,0,1.12-.49.93.93,0,0,0-.43-1.24.49.49,0,0,0-.17-.06l-1.92-.53a.94.94,0,0,0-.67,1.76h0Z"/><path d="M597.26,227.72l1.91.52a1,1,0,0,0,1.12-.49.9.9,0,0,0-.4-1.22l0,0a.49.49,0,0,0-.17-.06l-1.91-.53a1,1,0,0,0-1.12.5.93.93,0,0,0,.43,1.24Z"/><path d="M593.91,224.86l-1.92-.52a1,1,0,0,0-1.11.5.91.91,0,0,0,.42,1.23h0l.16.06,1.92.52a1,1,0,0,0,1.11-.49.9.9,0,0,0-.4-1.22l0,0Z"/><path d="M588.12,223.28l-3.85-1a1,1,0,0,0-1.12.49.91.91,0,0,0,.42,1.23h0a.49.49,0,0,0,.17.06l3.85,1.05a.94.94,0,0,0,.81-1.7l-.14,0Z"/><path d="M616.73,224.82l1.91.52a1,1,0,0,0,1.22-.54.93.93,0,0,0-.53-1.21h0l-.16-.05-1.92-.52a.93.93,0,0,0-.56,1.78h0Z"/><path d="M610.94,223.24l1.92.53a1,1,0,0,0,1.38-.27,1,1,0,0,0-.27-1.37,1,1,0,0,0-.59-.17l-1.92-.51a.94.94,0,0,0-.81,1.7l.14,0Z"/><path d="M605.15,221.66l1.92.53a1,1,0,0,0,1.11-.5.91.91,0,0,0-.42-1.23h0l-.16-.06-1.92-.52a1,1,0,0,0-1.11.49.9.9,0,0,0,.4,1.22l0,0A.44.44,0,0,0,605.15,221.66Z"/><path d="M599.4,220.08l1.92.53a1,1,0,0,0,1.12-.5.93.93,0,0,0-.43-1.24l-.18-.06-1.91-.52a.92.92,0,0,0-1.17.6.93.93,0,0,0,.6,1.18Z"/><path d="M593.58,218.5l1.92.53a.94.94,0,0,0,.67-1.76H596l-1.91-.52a1,1,0,0,0-1.13.49.94.94,0,0,0,.44,1.24h0A.5.5,0,0,0,593.58,218.5Z"/><path d="M585.86,216.4l3.84,1.06a1,1,0,0,0,1.13-.5.94.94,0,0,0-.44-1.24h0a.49.49,0,0,0-.17-.06l-3.84-1.06a1,1,0,0,0-1.13.49.94.94,0,0,0,.44,1.25Z"/><path d="M620,227.89l-1.91-.53a1,1,0,0,0-1.13.5.94.94,0,0,0,.44,1.24h0a.49.49,0,0,0,.17.06l1.92.53a.93.93,0,0,0,.56-1.78Z"/><path d="M614.3,226.31l-1.92-.53a1,1,0,0,0-1.11.5.93.93,0,0,0,.43,1.24.49.49,0,0,0,.17.06l1.92.52a.93.93,0,0,0,.57-1.77Z"/><path d="M608.46,224.73l-1.92-.52a.93.93,0,0,0-1.11.49A1,1,0,0,0,606,226h.07l1.91.52a.94.94,0,0,0,.59-1.78Z"/><path d="M602.68,223.16l-1.92-.53a.94.94,0,0,0-.58,1.78h.06l1.92.52a.92.92,0,0,0,1.17-.6.93.93,0,0,0-.6-1.18Z"/><path d="M596.89,221.6l-1.92-.52a1,1,0,0,0-1.11.5.91.91,0,0,0,.42,1.23h0l.16.06,1.92.52a1,1,0,0,0,1.11-.49.9.9,0,0,0-.4-1.22l0,0Z"/><path d="M584.8,220.22l5.79,1.57a.94.94,0,0,0,.81-1.7l-.14-.05h-.15l-5.8-1.57a.94.94,0,0,0-.68,1.76h.17Z"/><path d="M622.16,220.18l-1.9-.55a1,1,0,0,0-1.12.49.91.91,0,0,0,.42,1.23h0l.18.07,1.9.52a.92.92,0,1,0,.54-1.76Z"/><path d="M613.94,219.89l1.92.51a1,1,0,0,0,1.22-.54.93.93,0,0,0-.53-1.21h0l-.16-.05-1.92-.52a1,1,0,1,0-1.34,1.48.87.87,0,0,0,.23.16A1,1,0,0,0,613.94,219.89Z"/><path d="M608.15,218.31l1.92.52a1,1,0,0,0,1.11-.49.93.93,0,0,0-.42-1.25h0l-.16-.06-1.92-.52a.94.94,0,0,0-.81,1.7l.14,0Z"/><path d="M602.38,216.72l1.92.53a1,1,0,0,0,1.12-.5.93.93,0,0,0-.43-1.24l-.18-.06-1.9-.52a.94.94,0,0,0-.58,1.78Z"/><path d="M596.58,215.14l1.92.53a.92.92,0,0,0,1.17-.6.93.93,0,0,0-.6-1.18H599l-1.91-.52a.93.93,0,1,0-.57,1.77Z"/><path d="M586.92,212.52l5.79,1.58a1,1,0,0,0,1.38-.27,1,1,0,0,0-.27-1.37,1,1,0,0,0-.59-.17l-5.75-1.55a.93.93,0,0,0-.57,1.77Z"/><path d="M646.49,377.24h-1.14V344.89a4.11,4.11,0,0,0-4.11-4.1H593a4.11,4.11,0,0,0-4.12,4.1h0v32.35h-1.06a1,1,0,0,0-1,1v2.06a3.06,3.06,0,0,0,3.08,3.06h54.44a3.06,3.06,0,0,0,3.08-3.06h0v-2.06A1,1,0,0,0,646.49,377.24Zm-53.44-34.5h48.17a2.16,2.16,0,0,1,2.16,2.16v32.34H590.89V344.9A2.18,2.18,0,0,1,593.05,342.74Zm52.46,37.54a1.13,1.13,0,0,1-1.12,1.11H590a1.11,1.11,0,0,1-1.11-1.11v-1.07H611v.05a1,1,0,0,0,1,1h10.47a1,1,0,0,0,1-1v-.05h22.11Z"/><path d="M640.2,344.93H594.15a1,1,0,0,0-1,1V374a1,1,0,0,0,1,1H640.2a1,1,0,0,0,1-1V345.91A1,1,0,0,0,640.2,344.93Zm-1,28.09H595.13V346.89h44.09Z"/><path d="M606.19,301.9h-1.14V269.54a4.11,4.11,0,0,0-4.11-4.09H552.71a4.11,4.11,0,0,0-4.12,4.08h0V301.9h-1.07a1,1,0,0,0-1,1V305a3.06,3.06,0,0,0,3.08,3.06H604a3.06,3.06,0,0,0,3.08-3.06h0v-2.07A1,1,0,0,0,606.19,301.9Zm-53.48-34.5h48.17a2.17,2.17,0,0,1,2.16,2.15V301.9H550.59V269.55A2.17,2.17,0,0,1,552.71,267.4Zm52.45,37.54a1.11,1.11,0,0,1-1.11,1.11H549.66a1.11,1.11,0,0,1-1.11-1.11v-1.08h22.11v.06a1,1,0,0,0,1,1h10.46a1,1,0,0,0,1-1v-.06h22.11Z"/><path d="M599.9,269.58H553.84a1,1,0,0,0-1,1v28.09a1,1,0,0,0,1,1H599.9a1,1,0,0,0,1-1v-28.1A1,1,0,0,0,599.9,269.58Zm-1,28.1H554.84V271.55h44.07Z"/><path d="M542.38,334.22l-41.81-1.7a3.29,3.29,0,0,0-3.42,3.14l-1.23,29.89a3.29,3.29,0,0,0,3.15,3.41l14.23.58-.85,5.08h-1.06a.78.78,0,0,0-.08,1.56l1.68.07h0l13.41.55h0l1.66.06a.78.78,0,0,0,.83-.71v0a.78.78,0,0,0-.73-.83h-1l-.43-5.13,14.16.57a3.28,3.28,0,0,0,3.42-3.11h0l1.23-29.9a3.29,3.29,0,0,0-3.06-3.49ZM514,374.72l.85-5.09,10.36.43.44,5.13Zm27-5.53-41.79-1.7a1.72,1.72,0,0,1-1.65-1.79h0l.06-1.71,45.2,1.84-.07,1.72a1.73,1.73,0,0,1-1.78,1.59Zm1.92-4.94-45.23-1.85,1.11-26.67a1.71,1.71,0,0,1,1.77-1.65h0l41.79,1.71a1.71,1.71,0,0,1,1.65,1.77h0Z"/><path d="M519.23,367.29l1.67.07a.78.78,0,1,0,.08-1.56h0l-1.66-.07a.8.8,0,0,0-.82.6.78.78,0,0,0,.58.94h0Z"/><path d="M541.35,337.48l-40.09-1.64a.78.78,0,0,0-.81.75h0l-1,23.27a.78.78,0,0,0,.75.81h0l40.09,1.64a.79.79,0,0,0,.82-.75h0l1-23.27a.77.77,0,0,0-.73-.81h0Zm-1.67,23.23-38.63-1.57.9-21.73L540.53,339Z"/><path d="M184.37,258l-14.29,7.47a7.94,7.94,0,0,0-3.38,10.71l0,0,12.91,24.35A16.37,16.37,0,0,0,201,307.62a16,16,0,0,0,7.37-21.39v0l-.2-.39-13-24.45A8,8,0,0,0,184.4,258h0Zm-5.67,4.86,6.4-3.35a6.34,6.34,0,0,1,2.73-.72l6.83,12.92a4.5,4.5,0,0,1-1.89,6.08h0l-4.82,2.52-2.62-4.94a2.6,2.6,0,0,0,.45-3l-1.67-3.16a2.64,2.64,0,0,0-2.77-1.35Zm3.91,7.12,1.62,3.06a.94.94,0,0,1-1.63.94l0,0-1.65-3.11a.94.94,0,1,1,1.59-1,.76.76,0,0,1,.09.18Zm-13.91-1.21a6.26,6.26,0,0,1,2.15-1.81l6.41-3.35,2.61,4.94a2.63,2.63,0,0,0-.45,3l1.67,3.15a2.64,2.64,0,0,0,2.77,1.35l2.62,4.94-4.82,2.52a4.56,4.56,0,0,1-6.13-1.89Zm37.75,17.74a14.22,14.22,0,0,1-4.36,19.63l-.11.07a14.42,14.42,0,0,1-19.82-4.45,15.67,15.67,0,0,1-1-1.85l-12.91-24.45a6.3,6.3,0,0,1-.44-4.85l6.28,11.86a6.22,6.22,0,0,0,8.38,2.6h0l11.09-5.78a6.15,6.15,0,0,0,2.63-8.3l0-.05-6.27-11.86a6.39,6.39,0,0,1,3.77,3.12Z"/><path d="M188.88,283.84a2.61,2.61,0,0,0-1.11,3.52v0a2.64,2.64,0,0,0,3.55,1.09,2.62,2.62,0,0,0,1.12-3.52h0A2.65,2.65,0,0,0,188.88,283.84Zm1.67,3.16a1,1,0,0,1-1.18-.76.83.83,0,1,1,1.58-.52,1,1,0,0,1-.4,1.27Z"/><path d="M385.42,268.93l-16-2.2a8,8,0,0,0-9,6.81l-3.78,27.24a16.08,16.08,0,0,0,31.78,4.94,3.11,3.11,0,0,1,.07-.44l3.79-27.37a8,8,0,0,0-6.83-9Zm-7.46.66,7.17,1a6.49,6.49,0,0,1,2.64,1l-2,14.46a4.54,4.54,0,0,1-5.11,3.86h0l-5.41-.74.78-5.55a2.62,2.62,0,0,0,2.14-2.21l.49-3.53a2.61,2.61,0,0,0-1.46-2.7Zm-1,8.07-.47,3.42a.93.93,0,1,1-1.84-.22l.49-3.49a.93.93,0,0,1,1.86.13l0,.16Zm-10.6-9a6.41,6.41,0,0,1,2.82-.25l7.17,1-.77,5.57a2.62,2.62,0,0,0-2.13,2.21l-.49,3.53a2.61,2.61,0,0,0,1.45,2.7l-.76,5.57-5.41-.74a4.53,4.53,0,0,1-3.87-5.09Zm20.37,36.28a14.36,14.36,0,1,1-28.55-3.17,4.11,4.11,0,0,1,.08-.6l3.79-27.37a6.33,6.33,0,0,1,2.49-4.2l-1.84,13.27a6.21,6.21,0,0,0,5.28,7h0l12.41,1.69a6.21,6.21,0,0,0,7-5.27L389.27,273a6.23,6.23,0,0,1,1.24,4.71Z"/><path d="M374,292.54a2.79,2.79,0,1,0,.05,0Zm-.48,3.54a1,1,0,1,1,1.08-.91v.1a1,1,0,0,1-1.07.81Z"/><path d="M325.45,219.79l-48.23-13.16a4,4,0,0,0-4.84,2.75l-5.29,19.14a4,4,0,0,0,2.76,4.81l48.24,13.16a4,4,0,0,0,4.84-2.75l5.27-19.17A4,4,0,0,0,325.45,219.79Zm-6.87,24.91-48.22-13.15a2,2,0,0,1-1.48-2.41l0-.11,5.28-19.15a2.07,2.07,0,0,1,2.54-1.44L325,221.6a2.07,2.07,0,0,1,1.44,2.52l-5.29,19.16a2.05,2.05,0,0,1-2.53,1.42h0Z"/><path d="M307.67,235.53l-23.18-6.33a1,1,0,0,0-1.13.5.94.94,0,0,0,.44,1.24h0l.17.06,23.21,6.33a1,1,0,0,0,1.11-.49.94.94,0,0,0-.44-1.24h0Z"/><path d="M280.62,228.15l-1.92-.52a.93.93,0,1,0-.56,1.78h.05l1.91.52a.93.93,0,0,0,.59-1.77Z"/><path d="M274.84,226.54l-1.92-.51a1,1,0,0,0-1.22.54.94.94,0,0,0,.55,1.21l.16.05,1.91.52a1,1,0,0,0,1.38-.27,1,1,0,0,0-.27-1.37A1,1,0,0,0,274.84,226.54Z"/><path d="M319.26,238.67l-1.92-.52a1,1,0,0,0-1.11.5.91.91,0,0,0,.42,1.23h0l.16.06,1.92.52a.94.94,0,0,0,.81-1.7l-.14-.05Z"/><path d="M313.42,237.09l-1.91-.51a1,1,0,0,0-1.22.54.93.93,0,0,0,.53,1.21H311l1.92.52a1,1,0,1,0,1.1-1.64A1,1,0,0,0,313.42,237.09Z"/><path d="M320.25,234.86l-3.86-1.05a.94.94,0,0,0-.68,1.76h.17l3.85,1a1,1,0,0,0,1.12-.49,1,1,0,0,0-.43-1.25Z"/><path d="M312.53,232.75l-1.9-.52a1,1,0,0,0-1.11.5.92.92,0,0,0,.42,1.24l.06,0a.49.49,0,0,0,.17.06l1.93.53a.94.94,0,0,0,1.15-.64h0v-.17A1,1,0,0,0,312.53,232.75Z"/><path d="M304.35,232.47l1.92.52a.94.94,0,0,0,1.24-.47.93.93,0,0,0-.47-1.24l-.09,0h-.16l-1.92-.53a1,1,0,0,0-1.11.5.91.91,0,0,0,.42,1.23h0Z"/><path d="M298.54,230.88l1.91.51a.94.94,0,0,0,.81-1.7l-.14-.05H301l-1.91-.53a.94.94,0,0,0-.58,1.79Z"/><path d="M292.75,229.3l1.92.52a1,1,0,0,0,1.11-.49.9.9,0,0,0-.4-1.22l0,0a.44.44,0,0,0-.16-.06l-1.92-.53a.94.94,0,1,0-.68,1.76h0Z"/><path d="M287,227.72l1.92.52a1,1,0,0,0,1.11-.49.91.91,0,0,0-.42-1.23h0a.49.49,0,0,0-.17-.06l-1.91-.53a1,1,0,0,0-1.12.5.93.93,0,0,0,.43,1.24Z"/><path d="M283.6,224.86l-1.91-.52a1,1,0,0,0-1.12.5.93.93,0,0,0,.43,1.24l.18.06,1.91.52a.93.93,0,0,0,.57-1.78Z"/><path d="M277.82,223.28l-3.85-1a.92.92,0,0,0-1.17.6.93.93,0,0,0,.6,1.18h.05l3.85,1.05a.94.94,0,0,0,1.12-.48,1,1,0,0,0-.54-1.29Z"/><path d="M322.38,227.23l-3.86-1a.93.93,0,0,0-1.17.6.92.92,0,0,0,.59,1.17H318l3.86,1a.93.93,0,0,0,.57-1.77Z"/><path d="M312.22,226.4l1.92.52a1,1,0,0,0,1.11-.49.93.93,0,0,0-.42-1.25h0l-.16-.06-1.92-.52a.92.92,0,0,0-1.17.6.93.93,0,0,0,.6,1.18h0Z"/><path d="M306.43,224.82l1.92.52a1,1,0,0,0,1.22-.54.94.94,0,0,0-.55-1.21l-.16-.05L307,223a1,1,0,0,0-1.12.49.93.93,0,0,0,.43,1.24Z"/><path d="M300.64,223.24l1.92.53a.94.94,0,1,0,.58-1.79h-.07l-1.91-.51a.94.94,0,0,0-1.24.47.93.93,0,0,0,.47,1.24l.09,0h.16Z"/><path d="M294.86,221.66l1.91.53a1,1,0,0,0,1.12-.5.93.93,0,0,0-.43-1.24l-.17-.06-1.92-.52a.93.93,0,0,0-.57,1.77Z"/><path d="M289.07,220.08l1.91.53a1,1,0,0,0,1.12-.5.93.93,0,0,0-.43-1.24l-.17-.06-1.92-.52a1,1,0,0,0-1.11.49.91.91,0,0,0,.42,1.23h0A.49.49,0,0,0,289.07,220.08Z"/><path d="M283.27,218.5l1.92.53a.94.94,0,1,0,.68-1.76h-.16l-1.92-.56a1,1,0,0,0-1,1,1,1,0,0,0,.4.81Z"/><path d="M275.55,216.4l3.85,1.06a1,1,0,0,0,1.11-.5.91.91,0,0,0-.42-1.23h0a.44.44,0,0,0-.16-.06l-3.86-1.06a1,1,0,0,0-1.11.49.93.93,0,0,0,.42,1.25h0Z"/><path d="M321.32,231l-1.92-.51a.93.93,0,0,0-.58,1.77h.07l1.92.53a1,1,0,1,0,1.1-1.64,1,1,0,0,0-.59-.17Z"/><path d="M315.53,229.51l-1.92-.53a.94.94,0,0,0-1.18.6,1,1,0,0,0,.61,1.18h.06l1.91.53a1,1,0,0,0,1.12-.5.93.93,0,0,0-.43-1.24A.47.47,0,0,0,315.53,229.51Z"/><path d="M309.74,227.89l-1.92-.53a.93.93,0,0,0-.56,1.78h0l1.92.53a1,1,0,0,0,1.12-.5.9.9,0,0,0-.4-1.22l0,0Z"/><path d="M304,226.31l-1.92-.53a.93.93,0,0,0-.57,1.78h0l1.92.52a.93.93,0,0,0,.58-1.77Z"/><path d="M298.17,224.73l-1.92-.52a.93.93,0,0,0-1.11.49,1,1,0,0,0,.53,1.29h.06l1.92.52a1,1,0,1,0,1.36-1.46.68.68,0,0,0-.26-.18A1.06,1.06,0,0,0,298.17,224.73Z"/><path d="M292.37,223.16l-1.92-.57a.94.94,0,0,0-.58,1.78h.06l1.92.52a1,1,0,0,0,1.12-.49.91.91,0,0,0-.47-1.21h0Z"/><path d="M286.59,221.6l-1.92-.52a1,1,0,0,0-1.12.5.94.94,0,0,0,.44,1.24h0l.17.06,1.92.52a.93.93,0,0,0,.56-1.78h0Z"/><path d="M274.55,220.22l5.79,1.57A1,1,0,1,0,281,220h-.16l-5.79-1.57a1,1,0,0,0-1.22.55,1,1,0,0,0,.54,1.21Z"/><path d="M323.44,223.34l-1.91-.52a1,1,0,0,0-1.22.54.94.94,0,0,0,.55,1.21l.15.05,1.91.52a1,1,0,0,0,1.12-.49.9.9,0,0,0-.4-1.22l0,0Z"/><path d="M317.66,221.76l-1.92-.52a1,1,0,0,0-1.11.49.93.93,0,0,0,.42,1.25h0l.16.06,1.92.52a1,1,0,0,0,1.11-.49.9.9,0,0,0-.4-1.22l0,0Z"/><path d="M311.86,220.18l-1.91-.52a1,1,0,0,0-1.12.49.93.93,0,0,0,.43,1.24l.17.07,1.92.52a1,1,0,0,0,1.22-.54.94.94,0,0,0-.55-1.21Z"/><path d="M303.65,219.89l1.91.51a1,1,0,0,0,1.21-.54.92.92,0,0,0-.51-1.2h0l-.16-.05-1.9-.52a.94.94,0,0,0-.59,1.78Z"/><path d="M297.86,218.31l1.91.52a1,1,0,0,0,1.12-.49,1,1,0,0,0-.43-1.25l-.17-.06-1.92-.52a.94.94,0,0,0-.81,1.7l.14,0Z"/><path d="M292.07,216.72l1.91.53a1,1,0,0,0,1.12-.5.93.93,0,0,0-.43-1.24l-.17-.06-1.92-.52a1,1,0,0,0-1.11.49.91.91,0,0,0,.42,1.23h0A.49.49,0,0,0,292.07,216.72Z"/><path d="M286.28,215.14l1.91.53a.94.94,0,0,0,.58-1.78h-.06l-1.91-.52a1,1,0,0,0-1.12.49.91.91,0,0,0,.42,1.23h0A.47.47,0,0,0,286.28,215.14Z"/><path d="M276.63,212.52l5.78,1.58a.94.94,0,1,0,.58-1.79h-.06l-5.79-1.55a.93.93,0,0,0-1.16.61.92.92,0,0,0,.61,1.15Z"/><path d="M426.26,333.63l-46.54,18.19a4,4,0,0,0-2.23,5.08l7.33,18.49a4,4,0,0,0,5.11,2.22l46.55-18.2a3.94,3.94,0,0,0,2.22-5.08l-7.3-18.49A4,4,0,0,0,426.26,333.63Zm9.5,24-46.54,18.19a2.07,2.07,0,0,1-2.67-1.15h0l-7.31-18.48a2,2,0,0,1,1.06-2.62l.1,0,46.54-18.2a2.07,2.07,0,0,1,2.67,1.16L436.93,355a2.07,2.07,0,0,1-1.17,2.67h0Z"/><path d="M421.5,356.82l-22.39,8.76a.94.94,0,1,0,.51,1.81.47.47,0,0,0,.15-.06l22.4-8.76a.94.94,0,1,0-.44-1.83l-.12,0Z"/><path d="M395.4,367l-1.85.72a1,1,0,0,0-.59,1,.92.92,0,0,0,1.07.74h0a.48.48,0,0,0,.17-.05l1.85-.72a.92.92,0,0,0,.65-1.14h0a.94.94,0,0,0-1.16-.65h0A.44.44,0,0,0,395.4,367Z"/><path d="M389.79,369.21l-1.86.72a.94.94,0,0,0,.62,1.77h.06l1.84-.72a.94.94,0,0,0-.61-1.77Z"/><path d="M432.64,352.47l-1.85.73a1,1,0,1,0,.72,1.76l1.85-.72a1,1,0,0,0,.6-1.05.94.94,0,0,0-1.06-.79A1.11,1.11,0,0,0,432.64,352.47Z"/><path d="M427.05,354.66l-1.85.72a.94.94,0,0,0-.62,1.17,1,1,0,0,0,1.19.62h.11l1.85-.72a1,1,0,0,0,.59-1.06.92.92,0,0,0-1.08-.75Z"/><path d="M431.18,348.79l-3.71,1.45a.94.94,0,0,0-.86,1,.93.93,0,0,0,1,.86A1,1,0,0,0,428,352h.11l3.72-1.45a1,1,0,0,0,.6-1.06.93.93,0,0,0-1.09-.74h0Z"/><path d="M423.71,351.7l-1.82.72a.94.94,0,1,0,.56,1.8h0l.11-.05,1.87-.73a1,1,0,0,0-.15-2A1.11,1.11,0,0,0,423.71,351.7Z"/><path d="M417,356.36l1.85-.73a.94.94,0,0,0-.51-1.81h0a.44.44,0,0,0-.16.06l-1.85.73a.94.94,0,1,0,.51,1.81h0Z"/><path d="M411.39,358.54l1.84-.73a.94.94,0,1,0-.51-1.81l-.15.06-1.85.73a.94.94,0,1,0,.51,1.81Z"/><path d="M405.8,360.72l1.85-.73a.93.93,0,0,0,.62-1.16h0a1,1,0,0,0-1.18-.62H407l-1.84.73a.94.94,0,1,0,.56,1.8h.11Z"/><path d="M400.21,362.87l1.85-.72a.94.94,0,0,0-.49-1.81l-.18.06-1.85.72a.92.92,0,0,0-.65,1.14h0a1,1,0,0,0,1.16.66Z"/><path d="M395.81,362.62l-1.85.72a.94.94,0,1,0,.51,1.81l.16-.06,1.84-.72a1,1,0,0,0,.6-1.07.91.91,0,0,0-1.06-.73h0Z"/><path d="M390.23,364.84l-3.72,1.46a.94.94,0,1,0,.51,1.81.44.44,0,0,0,.16-.06l3.71-1.46a.94.94,0,0,0-.51-1.81Z"/><path d="M428.27,341.42l-3.71,1.45a.94.94,0,1,0,.51,1.81l.15-.06,3.73-1.45a.93.93,0,0,0,.57-1.19.94.94,0,0,0-1.2-.57h-.05Z"/><path d="M419.64,346.8l1.86-.72a1,1,0,0,0,.59-1.05.92.92,0,0,0-1.08-.75l-.19.05-1.84.73a.93.93,0,0,0-.66,1.14h0a.94.94,0,0,0,1.16.65h0A.44.44,0,0,0,419.64,346.8Z"/><path d="M414.06,349l1.85-.72a1,1,0,0,0,.59-1.06.92.92,0,0,0-1.06-.75h0a.6.6,0,0,0-.19.06l-1.85.72a.94.94,0,0,0,.51,1.81Z"/><path d="M408.47,351.17l1.85-.72a1,1,0,0,0,.6-1.06,1,1,0,0,0-1.09-.74l-.17.05-1.86.72a.94.94,0,1,0,.44,1.83l.12,0h.11Z"/><path d="M402.88,353.35l1.86-.72a.93.93,0,1,0-.61-1.76h-.07l-1.84.73a.93.93,0,0,0,.61,1.76Z"/><path d="M397.3,355.54l1.85-.72a.94.94,0,0,0-.61-1.77h-.06l-1.85.72a.94.94,0,0,0,.51,1.81l.16-.06Z"/><path d="M391.72,357.72l1.84-.72a1,1,0,0,0,.6-1.06,1,1,0,0,0-1.09-.74l-.17.05L391,356a.94.94,0,0,0,.61,1.77Z"/><path d="M384.27,360.63l3.71-1.45a1,1,0,0,0,.6-1.06.93.93,0,0,0-1.07-.74l-.2.05-3.72,1.49A1,1,0,0,0,383,360a1,1,0,0,0,1.23.68Z"/><path d="M429.72,345.09l-1.84.72a.93.93,0,0,0,.61,1.76h.06l1.85-.72a.93.93,0,1,0-.61-1.76Z"/><path d="M424.14,347.29l-1.85.72a1,1,0,0,0-.59,1.06.93.93,0,0,0,1.09.74h0l.17-.05,1.86-.72a.94.94,0,0,0-.62-1.77Z"/><path d="M418.6,349.47l-1.85.72a.93.93,0,0,0,.6,1.77h.07l1.84-.72a1,1,0,0,0,.6-1.06,1,1,0,0,0-1.09-.74Z"/><path d="M413,351.65l-1.86.73a.93.93,0,0,0,.61,1.76h.06l1.85-.72a1,1,0,0,0,.6-1,.93.93,0,0,0-1.09-.74h0Z"/><path d="M407.38,353.84l-1.85.72a1,1,0,0,0-.59,1.06.93.93,0,0,0,1.09.74h0l.17-.05,1.86-.72a.94.94,0,0,0-.62-1.77Z"/><path d="M401.8,356l-1.85.72a1,1,0,0,0-.59,1.06.93.93,0,0,0,1.09.74h0l.17,0,1.84-.72a.93.93,0,0,0-.6-1.77Z"/><path d="M396.22,358.2l-1.86.72a.94.94,0,0,0,.61,1.77H395l1.85-.72a1,1,0,0,0,.6-1.05.94.94,0,0,0-1.09-.75Z"/><path d="M385.72,364.32l5.58-2.18a.94.94,0,0,0-.61-1.77h-.06l-5.58,2.18a.94.94,0,1,0,.51,1.81l.16-.06Z"/><path d="M426.79,337.67l-1.85.72a1,1,0,0,0-.6,1.06.93.93,0,0,0,1.09.74h0l.18-.05,1.85-.72a.94.94,0,0,0-.62-1.77Z"/><path d="M421.2,339.85l-1.85.72a1,1,0,0,0-.59,1.07.93.93,0,0,0,1.09.73l.18-.05,1.85-.72a1,1,0,0,0,.66-1.16.94.94,0,0,0-1.16-.65l-.07,0Z"/><path d="M415.62,342l-1.85.72a.94.94,0,0,0,.62,1.78h.05l1.84-.73a.94.94,0,0,0-.51-1.81h0l-.15.06Z"/><path d="M408.85,346.7l1.85-.74a.92.92,0,0,0,.65-1.14h0a.94.94,0,0,0-1.16-.65h0a.44.44,0,0,0-.16.06l-1.84.73a.93.93,0,0,0-.66,1.14h0a1,1,0,0,0,1.17.65Z"/><path d="M403.27,348.88l1.85-.73a1,1,0,0,0,.66-1.16.94.94,0,0,0-1.16-.65l-.07,0h-.11l-1.85.73a1,1,0,0,0-.66,1.16.94.94,0,0,0,1.16.65l.07,0Z"/><path d="M397.68,351.06l1.85-.73a.94.94,0,1,0-.44-1.83l-.12,0h-.11l-1.85.73a.94.94,0,0,0,.51,1.81.44.44,0,0,0,.16-.06Z"/><path d="M392.09,353.24l1.85-.73a.94.94,0,0,0,.66-1.15,1,1,0,0,0-1.17-.65l-.15.06-1.85.73a.94.94,0,0,0-.66,1.15,1,1,0,0,0,1.17.65Z"/><path d="M382.78,356.88l5.59-2.18a.94.94,0,0,0-.62-1.77h-.06l-5.58,2.18a.94.94,0,0,0,.49,1.8Z"/><path d="M336.19,377.24h-1.14V344.89a4.11,4.11,0,0,0-4.1-4.1h-48.2a4.11,4.11,0,0,0-4.13,4.09h0v32.35h-1.09a1,1,0,0,0-1,1v2.06a3.06,3.06,0,0,0,3.08,3.06h54.44a3.06,3.06,0,0,0,3.08-3.06h0v-2.06A1,1,0,0,0,336.19,377.24Zm-53.43-34.5h48.17a2.16,2.16,0,0,1,2.15,2.16v32.34H280.59V344.9A2.18,2.18,0,0,1,282.76,342.74Zm52.44,37.54a1.11,1.11,0,0,1-1.11,1.11H279.66a1.11,1.11,0,0,1-1.11-1.11v-1.07h22.12v.05a1,1,0,0,0,1,1h10.46a1,1,0,0,0,1-1v-.05h22.1Z"/><path d="M329.91,344.93H283.85a1,1,0,0,0-1,1V374a1,1,0,0,0,1,1h46.06a1,1,0,0,0,1-1V345.91A1,1,0,0,0,329.91,344.93Zm-1,28.09H284.83V346.89h44.09Z"/><path d="M295.89,301.9h-1.14V269.54a4.1,4.1,0,0,0-4.12-4.09H242.44a4.1,4.1,0,0,0-4.12,4.09V301.9h-1.06a1,1,0,0,0-1,1V305a3.06,3.06,0,0,0,3.06,3.06h54.45a3.06,3.06,0,0,0,3.08-3v0h0v-2.07A1,1,0,0,0,295.89,301.9Zm-53.44-34.5h48.18a2.16,2.16,0,0,1,2.15,2.15V301.9H240.29V269.55a2.17,2.17,0,0,1,2.16-2.15Zm52.46,37.54a1.13,1.13,0,0,1-1.12,1.11H239.35a1.11,1.11,0,0,1-1.11-1.11v-1.08h22.13v.06a1,1,0,0,0,1,1h10.47a1,1,0,0,0,1-1v-.06H295Z"/><path d="M289.6,269.58H243.55a1,1,0,0,0-1,1v28.09a1,1,0,0,0,1,1H289.6a1,1,0,0,0,1-1v-28.1A1,1,0,0,0,289.6,269.58Zm-1,28.1H244.53V271.55h44.09Z"/><path d="M432.23,195.57l-47.69,2.69c-2.07.12-3.64,2.17-3.5,4.57l2.26,39.7c.14,2.4,1.93,4.25,4,4.14l16.24-.92-.34,6.82-1.21.07a1.06,1.06,0,0,0-.07,2.07h.21l1.91-.11h0l15.32-.87h0l1.9-.11a1.06,1.06,0,0,0,.07-2.06h-.21l-1.15.06-1.12-6.75L435,244a4.09,4.09,0,0,0,3.51-4.56l-2.27-39.71C436.1,197.3,434.3,195.45,432.23,195.57Zm-27.35,56.91.35-6.83,11.82-.67,1.12,6.75Zm30-10.51-47.68,2.7a2.15,2.15,0,0,1-2.1-2.17l-.13-2.27,51.66-2.92.13,2.27a2.15,2.15,0,0,1-1.88,2.39Zm1.59-6.74-51.66,3-2-35.42a2.15,2.15,0,0,1,1.84-2.39l47.69-2.7a2.15,2.15,0,0,1,2.09,2.17Z"/><path d="M410,242.09l1.9-.11a1,1,0,0,0,.07-2h-.21l-1.89.11a1,1,0,1,0-.07,2Z"/><path d="M431.51,200l-45.78,2.58a1,1,0,0,0-.84,1.09l1.77,30.91a1,1,0,0,0,1,1L433.43,233a1,1,0,0,0,.83-1.08L432.51,201A1,1,0,0,0,431.51,200Zm.94,30.95-44.08,2.49-1.65-28.84,44-2.48Z"/><path d="M232.07,334.22l-41.79-1.7a3.29,3.29,0,0,0-3.43,3.14l-1.23,29.89a3.29,3.29,0,0,0,3.16,3.41l14.23.58-.86,5.08H201.1a.82.82,0,0,0-.29,1.6H201l1.67.07h0l13.41.55h0l1.66.06a.78.78,0,1,0,.08-1.56h-1l-.42-5.13,14.15.57a3.28,3.28,0,0,0,3.43-3.12h0l1.23-29.9a3.28,3.28,0,0,0-3-3.52Zm-28.43,40.5.86-5.09,10.36.43.42,5.13Zm27-5.53-41.79-1.7a1.72,1.72,0,0,1-1.65-1.79h0l.07-1.71,45.24,1.84-.08,1.72a1.7,1.7,0,0,1-1.79,1.59Zm1.93-4.94-45.23-1.88,1.09-26.67a1.72,1.72,0,0,1,1.79-1.65h0L232,335.76a1.71,1.71,0,0,1,1.66,1.76h0Z"/><path d="M209,367.29l1.65.07a.81.81,0,0,0,.83-.61.79.79,0,0,0-.52-1h-2a.78.78,0,1,0-.08,1.56h0Z"/><path d="M231.06,337.48,191,335.84a.77.77,0,0,0-.82.72h0l-1,23.27a.78.78,0,0,0,.75.81h0l40.1,1.64a.78.78,0,0,0,.81-.75h0l1-23.27a.76.76,0,0,0-.71-.81h0Zm-1.69,23.23-38.58-1.57.9-21.73L230.27,339Z"/><path d="M75.12,268.93l-16-2.2a8,8,0,0,0-9,6.81l-3.79,27.24a16.26,16.26,0,0,0,13.23,18.07,16.08,16.08,0,0,0,18.54-13.1,1.08,1.08,0,0,1,.07-.47L82,277.91a8,8,0,0,0-6.84-9Zm-7.46.66,7.17,1a6.49,6.49,0,0,1,2.64,1l-2,14.46a4.53,4.53,0,0,1-5.12,3.85L65,289.14l.77-5.55a2.62,2.62,0,0,0,2.14-2.21l.49-3.53a2.62,2.62,0,0,0-1.44-2.7Zm-1,8.07-.48,3.42a1,1,0,0,1-1,.84.92.92,0,0,1-.85-1v-.08l.49-3.49a.94.94,0,0,1,1-.8h0a1,1,0,0,1,.74,1.08Zm-10.6-9a6.38,6.38,0,0,1,2.81-.25l7.17,1L65.27,275a2.62,2.62,0,0,0-2.14,2.21l-.49,3.53a2.61,2.61,0,0,0,1.46,2.7L63.32,289,58,288.19a4.54,4.54,0,0,1-3.88-5.09Zm20.36,36.28A14.36,14.36,0,0,1,48,301.15l3.81-27.37a6.32,6.32,0,0,1,2.48-4.2L52.4,282.85a6.22,6.22,0,0,0,5.31,7l12.42,1.69a6.19,6.19,0,0,0,7-5.27L79,273a6.27,6.27,0,0,1,1.24,4.71Z"/><path d="M63.67,292.54a2.62,2.62,0,1,0,2.24,3,2.63,2.63,0,0,0-2.24-3Zm-.49,3.54a1,1,0,1,1,1.09-.9h0v.08a1,1,0,0,1-1.07.81Z"/><path d="M15.16,219.79l-48.24-13.16a4,4,0,0,0-4.84,2.75l-5.28,19.14a3.94,3.94,0,0,0,2.76,4.81L7.79,246.49a4,4,0,0,0,4.85-2.75l5.27-19.17A3.94,3.94,0,0,0,15.16,219.79ZM8.31,244.7l-48.26-13.15A2.07,2.07,0,0,1-41.36,229l5.29-19.15a2.07,2.07,0,0,1,2.52-1.45h0l48.2,13.2a2.05,2.05,0,0,1,1.45,2.51h0l-5.28,19.16A2.08,2.08,0,0,1,8.31,244.7Z"/><path d="M8.92,238.67,7,238.15a1,1,0,0,0-1.12.5.93.93,0,0,0,.43,1.24l.18.06,1.9.52a.94.94,0,0,0,.85-1.68,1.13,1.13,0,0,0-.24-.08Z"/><path d="M3.13,237.09l-1.92-.51a1,1,0,0,0-1.22.54.94.94,0,0,0,.55,1.21H.7l1.91.52a1,1,0,1,0,.52-1.76Z"/><path d="M10,234.86l-3.85-1.05a1,1,0,0,0-1.22.55.94.94,0,0,0,.55,1.21h.15l3.86,1a1,1,0,0,0,1.11-.49.93.93,0,0,0-.42-1.25h0Z"/><path d="M2.24,232.75l-1.87-.52a1,1,0,0,0-1.13.5A.93.93,0,0,0-.36,234l0,0a.49.49,0,0,0,.17.06l1.93.53A1,1,0,0,0,3,233.86s0,0,0-.06v-.06A1,1,0,0,0,2.24,232.75Z"/><path d="M12.08,227.23l-3.85-1a.94.94,0,0,0-1.22.53H7A.93.93,0,0,0,7.54,228h.17l3.85,1a.93.93,0,0,0,.58-1.77Z"/><path d="M1.93,226.4l1.9.52A1,1,0,0,0,5,226.43a.94.94,0,0,0-.44-1.25l-.17-.06-1.91-.55a1,1,0,0,0-1.12.49.94.94,0,0,0,.39,1.26Z"/><path d="M11,231l-1.91-.54a.94.94,0,0,0-.76,1.72l.11,0h.12l1.92.53A.93.93,0,1,0,11,231Z"/><path d="M5.24,229.51l-1.89-.57a1,1,0,0,0-1.12.49,1,1,0,0,0,.54,1.29h.06l1.92.53a1,1,0,0,0,1.11-.5.93.93,0,0,0-.49-1.22Z"/><path d="M-.56,227.89l-1.91-.53a1,1,0,0,0-1.12.5.93.93,0,0,0,.43,1.24.49.49,0,0,0,.17.06l1.92.53a1,1,0,0,0,1.11-.5A.91.91,0,0,0-.39,228,.45.45,0,0,0-.56,227.89Z"/><path d="M13.14,223.34l-1.91-.52a.94.94,0,0,0-1.22.53h0a.92.92,0,0,0,.51,1.2h0l.16.05,1.92.52a.92.92,0,0,0,1.17-.6.93.93,0,0,0-.6-1.18h0Z"/><path d="M7.32,221.76l-1.92-.52a1,1,0,0,0-1.12.49.92.92,0,0,0,.4,1.25l0,0,.18.07,1.9.52a.94.94,0,0,0,.58-1.78Z"/><path d="M1.57,220.18l-1.92-.55a1,1,0,0,0-1.11.49A.92.92,0,0,0-1,221.35h0l.17.07,1.91.52a1,1,0,0,0,1.12-.48,1,1,0,0,0-.58-1.28Z"/><path d="M116,333.63,69.41,351.82a3.94,3.94,0,0,0-2.22,5.08l7.31,18.49a4,4,0,0,0,5.1,2.22l46.55-18.2a4,4,0,0,0,2.23-5.08l-7.31-18.49A4,4,0,0,0,116,333.63Zm9.5,24L78.93,375.86a2.07,2.07,0,0,1-2.68-1.16h0l-7.34-18.48a2.06,2.06,0,0,1,1.16-2.66h0l46.54-18.2a2.07,2.07,0,0,1,2.67,1.16L126.6,355a2,2,0,0,1-1,2.63l-.1,0Z"/><path d="M111.2,356.82l-22.42,8.76a.94.94,0,1,0,.51,1.81.44.44,0,0,0,.16-.06l22.39-8.76a.94.94,0,0,0-.51-1.81l-.16.06Z"/><path d="M85.11,367l-1.86.72a.93.93,0,1,0,.61,1.76h.06l1.88-.7a.94.94,0,0,0,.66-1.15,1,1,0,0,0-1.17-.65.47.47,0,0,0-.15.06Z"/><path d="M79.51,369.21l-1.84.72a.94.94,0,0,0,.61,1.77h.06l1.85-.72a.94.94,0,1,0-.44-1.83l-.12,0h-.12Z"/><path d="M122.34,352.47l-1.85.73a.93.93,0,0,0-.62,1.16h0a1,1,0,0,0,1.18.62l.12-.05,1.85-.72a1,1,0,0,0,.59-1.05.92.92,0,0,0-1.08-.75h0Z"/><path d="M116.76,354.66l-1.85.72a.93.93,0,0,0-.66,1.14v0a1,1,0,0,0,1.16.65l.15-.06,1.85-.72a.93.93,0,0,0-.6-1.77Z"/><path d="M120.89,348.79l-3.72,1.45a.94.94,0,1,0,.51,1.81l.16-.06,3.71-1.45a.93.93,0,0,0-.6-1.77Z"/><path d="M113.42,351.7l-1.83.72a.94.94,0,1,0,.51,1.81.44.44,0,0,0,.16-.06l1.86-.73a.92.92,0,0,0,.59-1.16v0a.94.94,0,0,0-1.2-.58h0Z"/><path d="M106.66,356.36l1.85-.73a.94.94,0,0,0-.51-1.81h0l-.15.06-1.85.73a1,1,0,0,0-.66,1.16,1,1,0,0,0,1.17.65Z"/><path d="M101.09,358.54l1.85-.73a.94.94,0,1,0-.44-1.83l-.12,0h-.12l-1.85.73a.94.94,0,0,0,.57,1.79Z"/><path d="M95.5,360.72l1.85-.73a.94.94,0,0,0-.51-1.81h0l-.16.06-1.85.73a.94.94,0,1,0,.51,1.81A.44.44,0,0,0,95.5,360.72Z"/><path d="M89.91,362.87l1.85-.72a1,1,0,0,0,.6-1.07.94.94,0,0,0-1.08-.74l-.18.06-1.85.72a.94.94,0,0,0-.66,1.15,1,1,0,0,0,1.17.66Z"/><path d="M85.5,362.62l-1.84.72a.94.94,0,1,0,.44,1.83l.12,0h.11l1.85-.72a1,1,0,0,0,.6-1.07,1,1,0,0,0-1.1-.73Z"/><path d="M79.92,364.84l-3.71,1.46a.94.94,0,1,0,.56,1.8l.11-.05,3.72-1.46a1,1,0,0,0,.59-1.2A.94.94,0,0,0,80,364.8h0Z"/><path d="M118,341.42l-3.72,1.45a.94.94,0,1,0,.51,1.81.44.44,0,0,0,.16-.06l3.71-1.45a1,1,0,0,0,.6-1.06,1,1,0,0,0-1.09-.74Z"/><path d="M109.35,346.8l1.84-.72a1,1,0,0,0,.6-1.05.93.93,0,0,0-1.07-.75l-.19.05-1.88.76a.92.92,0,0,0-.65,1.14h0a.94.94,0,0,0,1.16.65h0a.44.44,0,0,0,.16-.06Z"/><path d="M103.76,349l1.85-.72a1,1,0,0,0,.6-1.06.93.93,0,0,0-1.09-.74h0l-.18,0-1.85.72a.93.93,0,0,0-.62,1.16h0a.94.94,0,0,0,1.18.62h.11Z"/><path d="M98.17,351.17l1.86-.72a.94.94,0,0,0-.62-1.77h-.06l-1.85.72a.93.93,0,1,0,.62,1.76Z"/><path d="M92.59,353.35l1.84-.72a1,1,0,0,0,.61-1.05,1,1,0,0,0-1.21-.71h-.06l-1.85.73a.92.92,0,0,0-.65,1.14h0a.94.94,0,0,0,1.16.65h0a.44.44,0,0,0,.16-.06Z"/><path d="M87,355.54l1.85-.72a1,1,0,0,0,.6-1.06.93.93,0,0,0-1.09-.74h0l-.17.05-1.86.72a.93.93,0,0,0,.61,1.76Z"/><path d="M81.42,357.72l1.85-.72a.94.94,0,0,0-.62-1.77h-.06l-1.84.72a.94.94,0,0,0,.61,1.77Z"/><path d="M74,360.63l3.72-1.45a1,1,0,0,0,.59-1.06.93.93,0,0,0-1.09-.74h0l-.18.05-3.72,1.49a.93.93,0,0,0-.61,1.16h0a.94.94,0,0,0,1.18.62H74Z"/><path d="M119.43,345.09l-1.85.72a1,1,0,0,0-.59,1.05.92.92,0,0,0,1.07.74h0l.17-.05,1.85-.72a.93.93,0,0,0-.61-1.76Z"/><path d="M113.85,347.29,112,348a.93.93,0,0,0,.6,1.77h.06l1.85-.72a1,1,0,0,0,.6-1.06,1,1,0,0,0-1.09-.74Z"/><path d="M108.26,349.47l-1.85.72A1,1,0,0,0,107,352h.06l1.85-.72a1,1,0,0,0,.59-1.06.93.93,0,0,0-1.09-.74h-.15Z"/><path d="M102.69,351.65l-1.85.73a1,1,0,0,0-.59,1.05.92.92,0,0,0,1.07.74h0a.48.48,0,0,0,.17-.05l1.86-.72a1,1,0,0,0,.59-1,1,1,0,0,0-1.21-.71Z"/><path d="M97.09,353.84l-1.85.72a.94.94,0,0,0,.49,1.8l.17-.05,1.85-.72a.93.93,0,0,0-.6-1.77Z"/><path d="M91.5,356l-1.84.72a.93.93,0,0,0,.6,1.77h.06l1.85-.72a.94.94,0,0,0-.49-1.8Z"/><path d="M85.91,358.2l-1.85.72a.94.94,0,0,0,.62,1.77h.06l1.85-.72a.93.93,0,0,0-.62-1.76Z"/><path d="M75.42,364.32,81,362.14a1,1,0,0,0,.6-1.06.92.92,0,0,0-1.07-.74h0l-.17.05-5.59,2.18a.94.94,0,0,0,.61,1.77Z"/><path d="M116.49,337.67l-1.85.72a1,1,0,0,0-.6,1.06.93.93,0,0,0,1.09.74h0l.18-.05,1.84-.72a.94.94,0,1,0-.56-1.8Z"/><path d="M110.91,339.85l-1.85.72a1,1,0,0,0-.6,1.07.92.92,0,0,0,1.08.73h0l.18-.05,1.85-.72a.94.94,0,0,0-.51-1.81Z"/><path d="M105.32,342l-1.85.72a.94.94,0,0,0-.58,1.2.93.93,0,0,0,1.19.58h.06l1.85-.73a.94.94,0,0,0-.51-1.81l-.16.06Z"/><path d="M98.56,346.7l1.85-.74a.93.93,0,0,0,.61-1.16h0a.94.94,0,0,0-1.18-.62h0l-.11.05-1.85.73a.93.93,0,0,0-.62,1.16h0a1,1,0,0,0,1.18.62Z"/><path d="M93,348.88l1.86-.73a.94.94,0,1,0-.44-1.83l-.12,0h-.11l-1.85.73a.94.94,0,1,0,.51,1.81Z"/><path d="M87.38,351.06l1.85-.73a.94.94,0,0,0-.51-1.81l-.16.06-1.84.73a.94.94,0,1,0,.51,1.81Z"/><path d="M81.83,353.24l1.85-.73a.92.92,0,0,0,.65-1.14h0a.94.94,0,0,0-1.16-.65h0a.44.44,0,0,0-.16.06l-1.86.73a.94.94,0,0,0-.62,1.17,1,1,0,0,0,1.19.62Z"/><path d="M72.48,356.88l5.58-2.18a.94.94,0,0,0-.51-1.81l-.15.06-5.59,2.18a.94.94,0,0,0,.61,1.77Z"/><path d="M25.9,377.24H24.76V344.89a4.11,4.11,0,0,0-4.12-4.1H-27.55a4.11,4.11,0,0,0-4.12,4.1h0v32.35h-1.06a1,1,0,0,0-1,1v2.06a3.06,3.06,0,0,0,3.06,3.06H23.8a3.06,3.06,0,0,0,3.07-3v0h0v-2.06A1,1,0,0,0,25.9,377.24Zm-53.45-34.5H20.62a2.19,2.19,0,0,1,2.17,2.16v32.34H-29.7V344.9A2.16,2.16,0,0,1-27.55,342.74Zm52.46,37.54a1.13,1.13,0,0,1-1.12,1.11H-30.64a1.11,1.11,0,0,1-1.11-1.11v-1.07H-9.63v.05a1,1,0,0,0,1,1H1.82a1,1,0,0,0,1-1h0v-.05h22.1Z"/><path d="M19.61,344.93H-26.45a1,1,0,0,0-1,1V374a1,1,0,0,0,1,1H19.61a1,1,0,0,0,1-1V345.91A1,1,0,0,0,19.61,344.93Zm-1,28.09H-25.46V346.89H18.62Z"/><path d="M121.93,195.57l-47.68,2.69c-2.08.12-3.65,2.17-3.52,4.57L73,242.53a4.1,4.1,0,0,0,4,4.14l16.24-.92-.35,6.82-1.2.07a1.06,1.06,0,0,0-.07,2.07h.21l1.92-.11h0l15.31-.87h0l1.9-.11a1.05,1.05,0,0,0,.06-2.06h-.2l-1.16.06-1.12-6.75,16.17-.91a4.09,4.09,0,0,0,3.51-4.56L126,199.69a4.07,4.07,0,0,0-4-4.12ZM94.58,252.48l.34-6.83,11.83-.67,1.13,6.75Zm30-10.51-47.69,2.7a2.15,2.15,0,0,1-2.1-2.17l-.12-2.27,51.65-2.92.13,2.27A2.14,2.14,0,0,1,124.6,242Zm1.58-6.74-51.65,3-2-35.42a2.14,2.14,0,0,1,1.84-2.39l47.68-2.7a2.16,2.16,0,0,1,2.11,2.17Z"/><path d="M99.71,242.09l1.89-.11a1.06,1.06,0,0,0,.73-1.29,1,1,0,0,0-.66-.71h-.21l-1.89.11a1.06,1.06,0,0,0-.73,1.29,1,1,0,0,0,.66.71Z"/><path d="M121.18,200,75.4,202.6a1,1,0,0,0-.83,1.09l1.76,30.91a1,1,0,0,0,1,1L123.1,233a1,1,0,0,0,.84-1.08L122.17,201A1,1,0,0,0,121.18,200Zm.93,30.95-44,2.49L76.47,204.6l44.05-2.48Z"/><path d="M391.24,62.42l-14.3,7.47a8,8,0,0,0-3.36,10.75h0L386.45,105a16.37,16.37,0,0,0,21.32,7,16,16,0,0,0,7.46-21.36v0c-.08-.17-.16-.33-.25-.49L402.06,65.76a8,8,0,0,0-10.81-3.35Zm-5.67,4.86,6.4-3.34a6.49,6.49,0,0,1,2.73-.73l6.82,12.92a4.49,4.49,0,0,1-1.86,6.07l0,0h0l-4.85,2.52-2.63-4.94a2.6,2.6,0,0,0,.45-3l-1.67-3.16a2.64,2.64,0,0,0-2.77-1.36Zm3.91,7.14,1.62,3.06a.94.94,0,1,1-1.66.89l-1.64-3.11a.94.94,0,0,1,.38-1.26h.06a1,1,0,0,1,1.24.42ZM375.57,73.2a6.36,6.36,0,0,1,2.14-1.82L384.12,68l2.62,5a2.63,2.63,0,0,0-.45,3L388,79.17a2.62,2.62,0,0,0,2.82,1.36l2.62,4.94L388.59,88a4.55,4.55,0,0,1-6.13-1.9ZM413.32,91a14.23,14.23,0,0,1-5.85,19.27l-.09,0A14.42,14.42,0,0,1,388,104.39h0L375,79.94a6.21,6.21,0,0,1-.44-4.85l6.27,11.85a6.22,6.22,0,0,0,8.39,2.6l11.1-5.8A6.17,6.17,0,0,0,403,75.46l0,0h0l-6.28-11.85a6.33,6.33,0,0,1,3.78,3.11Z"/><path d="M395.75,88.25a2.62,2.62,0,0,0-1.12,3.52h0a2.64,2.64,0,0,0,3.55,1.1,2.61,2.61,0,0,0,1.13-3.51v0A2.65,2.65,0,0,0,395.75,88.25Zm1.67,3.16a.94.94,0,1,1,.36-1.36v.06a1,1,0,0,1-.41,1.3Z"/><path d="M592.28,73.36l-16-2.19a8,8,0,0,0-9,6.79h0l-3.78,27.26a16.08,16.08,0,0,0,31.77,4.94,1,1,0,0,1,.07-.45l3.8-27.39A8,8,0,0,0,592.28,73.36Zm-7.45.66L592,75a6.39,6.39,0,0,1,2.63,1l-2,14.46a4.55,4.55,0,0,1-5.12,3.85l-5.4-.74L582.9,88a2.64,2.64,0,0,0,2.15-2.2l.44-3.5A2.61,2.61,0,0,0,584,79.61Zm-1,8.07-.46,3.43a1,1,0,0,1-1,.83.93.93,0,0,1-.86-1h0v-.07L582,81.8a.94.94,0,1,1,1.88.12h0a.43.43,0,0,1,0,.16Zm-10.59-9a6.26,6.26,0,0,1,2.82-.23l7.16,1-.77,5.55a2.63,2.63,0,0,0-2.14,2.21l-.49,3.53a2.61,2.61,0,0,0,1.46,2.7l-.75,5.55-5.4-.74a4.52,4.52,0,0,1-3.87-5.09h0Zm20.36,36.29a14.36,14.36,0,1,1-28.55-3.17,4.07,4.07,0,0,1,.08-.61l3.8-27.36A6.29,6.29,0,0,1,571.41,74L569.6,87.26a6.18,6.18,0,0,0,5.26,7h0L587.31,96a6.2,6.2,0,0,0,7-5.26h0l1.82-13.28a6.34,6.34,0,0,1,1.27,4.74Z"/><path d="M580.83,97a2.63,2.63,0,1,0,2.25,3h0a2.62,2.62,0,0,0-2.21-3Zm-.49,3.54a1,1,0,1,1,1.08-.92v.08a1,1,0,0,1-1.08.81Z"/><path d="M532.32,24.21,484.08,11.07a4,4,0,0,0-4.83,2.73L474,32.93a4,4,0,0,0,2.76,4.81L525,50.9a4,4,0,0,0,4.84-2.75L535.08,29A4,4,0,0,0,532.32,24.21Zm-6.87,24.92L477.21,36a2,2,0,0,1-1.47-2.42l0-.1L481,14.31a2.09,2.09,0,0,1,2.55-1.45L531.85,26a2.05,2.05,0,0,1,1.44,2.53h0L528,47.74A2.07,2.07,0,0,1,525.45,49.13Z"/><path d="M514.53,40l-23.2-6.33a1,1,0,0,0-1.12.49.93.93,0,0,0,.43,1.24l.17.07L514,41.76a1,1,0,0,0,1.12-.5.93.93,0,0,0-.43-1.24Z"/><path d="M487.49,32.58l-1.92-.52a1,1,0,0,0-.94,1.74.92.92,0,0,0,.43.11l1.91.52a1,1,0,0,0,1.22-.54.92.92,0,0,0-.51-1.2h-.19Z"/><path d="M481.7,31l-1.92-.52a.93.93,0,0,0-.57,1.77h.06l1.91.53a1,1,0,0,0,1.12-.5.93.93,0,0,0-.43-1.24Z"/><path d="M526.08,43.1l-1.92-.52a1,1,0,0,0-1.38.27,1,1,0,0,0,.27,1.37,1,1,0,0,0,.59.17l1.92.52a.94.94,0,0,0,.58-1.78Z"/><path d="M520.29,41.53,518.38,41a.93.93,0,1,0-.59,1.77h.07l1.92.52a.93.93,0,0,0,.54-1.79Z"/><path d="M527.14,39.29l-3.86-1A.9.9,0,1,0,522.7,40h.07l3.85,1a.94.94,0,0,0,.58-1.78Z"/><path d="M519.39,37.17l-1.9-.51a.93.93,0,0,0-.56,1.78H517l2,.53a1,1,0,0,0,1.18-.76v-.07A1,1,0,0,0,519.39,37.17Z"/><path d="M511.19,36.88l1.92.52a1,1,0,0,0,1.22-.54.93.93,0,0,0-.53-1.21h-.17l-1.92-.52a.93.93,0,0,0-.57,1.78Z"/><path d="M505.4,35.31l1.92.52a1,1,0,0,0,1.38-.27,1,1,0,0,0-.27-1.37,1,1,0,0,0-.59-.17l-1.92-.51a1,1,0,0,0-1.22.54.92.92,0,0,0,.53,1.2h0Z"/><path d="M499.61,33.73l1.92.52a1,1,0,0,0,1.12-.49.91.91,0,0,0-.42-1.23h0l-.17-.07-1.92-.51a.93.93,0,0,0-.55,1.77Z"/><path d="M493.83,32.15l1.92.52a1,1,0,0,0,1.11-.49,1,1,0,0,0-.43-1.25l-.17-.06-1.91-.52a.94.94,0,0,0-1.18.6,1,1,0,0,0,.61,1.18Z"/><path d="M490.47,29.29l-1.92-.52a1,1,0,0,0-1.11.49.93.93,0,0,0,.43,1.24l.17.07,1.92.52a1,1,0,0,0,1.21-.54.92.92,0,0,0-.51-1.2h0Z"/><path d="M484.69,27.72l-3.85-1.06a1,1,0,0,0-1.12.5.93.93,0,0,0,.43,1.24.49.49,0,0,0,.17.06l3.84,1.06a.93.93,0,0,0,.57-1.78Z"/><path d="M529.24,31.65l-3.85-1a1,1,0,0,0-1.12.49.91.91,0,0,0,.42,1.23h0a.49.49,0,0,0,.17.06l3.85,1.05a1,1,0,0,0,1.22-.54.94.94,0,0,0-.55-1.21Z"/><path d="M519.08,30.82l1.92.53a.94.94,0,0,0,.67-1.76h-.15L519.6,29a1,1,0,0,0-1.11.5.9.9,0,0,0,.4,1.22l0,0A.48.48,0,0,0,519.08,30.82Z"/><path d="M513.3,29.25l1.92.53a1,1,0,1,0,1.1-1.65,1,1,0,0,0-.59-.16l-1.91-.52a.94.94,0,1,0-.68,1.76h0Z"/><path d="M507.51,27.67l1.92.52a1,1,0,0,0,1.11-.49.91.91,0,0,0-.42-1.23h0a.49.49,0,0,0-.17-.06L508,25.87a.94.94,0,0,0-1.18.6,1,1,0,0,0,.61,1.18Z"/><path d="M501.72,26.09l1.91.52a.93.93,0,1,0,.57-1.77h-.05l-1.92-.53a1,1,0,0,0-1.11.5.93.93,0,0,0,.43,1.24Z"/><path d="M495.94,24.51l1.91.52a.93.93,0,0,0,.58-1.77h-.06l-1.92-.53a1,1,0,0,0-1.12.5.93.93,0,0,0,.43,1.24Z"/><path d="M490.12,22.94l1.92.52A1,1,0,0,0,493.38,22a.87.87,0,0,0-.23-.16,1,1,0,0,0-.59-.16l-1.92-.52a.93.93,0,0,0-1.11.49,1,1,0,0,0,.53,1.29Z"/><path d="M482.43,20.84l3.84,1a.94.94,0,0,0,1.18-.6,1,1,0,0,0-.61-1.18h0l-3.86-1a1,1,0,1,0-1.1,1.64A1.18,1.18,0,0,0,482.43,20.84Z"/><path d="M528.18,35.48,526.26,35a.92.92,0,0,0-1.17.6.93.93,0,0,0,.6,1.18h.06l1.92.52a.93.93,0,0,0,.57-1.78Z"/><path d="M522.4,33.91l-1.92-.52a1,1,0,0,0-1.12.49,1,1,0,0,0,.43,1.25l.18.06,1.9.52a.94.94,0,0,0,.58-1.78Z"/><path d="M516.61,32.31l-1.92-.52a1,1,0,0,0-1.11.49.93.93,0,0,0,.42,1.25h0l.16.06,1.92.52a.93.93,0,0,0,.58-1.77Z"/><path d="M510.82,30.73l-1.92-.52a1,1,0,0,0-1.38.27,1,1,0,0,0,.27,1.37,1,1,0,0,0,.59.17l1.92.51a.93.93,0,0,0,1.17-.6.92.92,0,0,0-.59-1.17Z"/><path d="M505,29.16l-1.92-.52a1,1,0,0,0-1.22.54.93.93,0,0,0,.53,1.21h0l.16.05,1.91.52a.94.94,0,0,0,1.18-.6,1,1,0,0,0-.61-1.18Z"/><path d="M499.24,27.58l-1.91-.52a1,1,0,0,0-1.12.49.93.93,0,0,0,.43,1.24l.17.07,1.92.52a1,1,0,0,0,1.11-.49,1,1,0,0,0-.43-1.25Z"/><path d="M493.45,26l-1.92-.52a1,1,0,0,0-1.11.49.93.93,0,0,0,.43,1.24l.17.07,1.92.52a1,1,0,0,0,1.21-.54.92.92,0,0,0-.51-1.2h0Z"/><path d="M481.37,24.65l5.78,1.58a1,1,0,0,0,1.38-.27,1,1,0,0,0-.27-1.37,1,1,0,0,0-.59-.17l-5.78-1.57a.93.93,0,0,0-.58,1.77Z"/><path d="M530.31,27.77l-1.92-.52a1,1,0,0,0-1.11.49.9.9,0,0,0,.4,1.22l0,0a.44.44,0,0,0,.16.06l1.92.53a1,1,0,0,0,1.11-.5.91.91,0,0,0-.42-1.23h0Z"/><path d="M524.52,26.19l-1.92-.52a.92.92,0,0,0-1.17.6.93.93,0,0,0,.6,1.18h.05L524,28a.93.93,0,0,0,.57-1.78Z"/><path d="M518.73,24.61l-1.91-.52a.93.93,0,1,0-.57,1.77h0l1.92.53a.94.94,0,0,0,.67-1.76Z"/><path d="M510.51,24.31l1.92.53a1,1,0,0,0,1.16-1.61,1,1,0,0,0-.62-.18l-2-.54a1,1,0,0,0-1.22.55.93.93,0,0,0,.53,1.21h.17Z"/><path d="M504.72,22.73l1.91.53a1,1,0,0,0,1.13-.5.94.94,0,0,0-.44-1.24h0a.49.49,0,0,0-.17-.06l-1.92-.53a.93.93,0,0,0-.56,1.78Z"/><path d="M498.94,21.15l1.91.53a.93.93,0,0,0,.57-1.78h-.05l-1.92-.53a1,1,0,0,0-1.12.5.93.93,0,0,0,.43,1.24A.58.58,0,0,0,498.94,21.15Z"/><path d="M493.1,19.57l2,.51a.94.94,0,0,0,1.24-.47.93.93,0,0,0-.47-1.24l-.09,0h-.16l-1.92-.53a1,1,0,0,0-1.11.5.91.91,0,0,0,.38,1.24h0Z"/><path d="M483.49,16.94l5.79,1.58a1,1,0,0,0,1.11-.49.9.9,0,0,0-.4-1.22l0,0a.44.44,0,0,0-.16-.06L484,15.15a1,1,0,0,0-1.11.49.93.93,0,0,0,.43,1.24A.49.49,0,0,0,483.49,16.94Z"/><path d="M633.18,138.05l-46.55,18.2a3.93,3.93,0,0,0-2.23,5.08l7.31,18.49a4,4,0,0,0,5.11,2.21l46.55-18.19a3.94,3.94,0,0,0,2.22-5.08l-7.31-18.49A4,4,0,0,0,633.18,138.05Zm9.49,24-46.54,18.18a2.06,2.06,0,0,1-2.68-1.11h0l-7.3-18.48A2.05,2.05,0,0,1,587.3,158h0l46.54-18.2a2.07,2.07,0,0,1,2.67,1.17h0l7.31,18.48a2,2,0,0,1-1.08,2.61l-.09,0h0Z"/><path d="M628.37,161.26,606,170a.94.94,0,1,0,.44,1.83l.12,0h.11L629,163a1,1,0,0,0,.6-1.07.92.92,0,0,0-1.07-.74h0Z"/><path d="M602.26,171.45l-1.87.76a1,1,0,0,0-.59,1.07.93.93,0,0,0,1.09.73h.18l1.85-.72a1,1,0,0,0,.66-1.16.94.94,0,0,0-1.16-.65l-.07,0h-.11Z"/><path d="M596.68,173.64l-1.85.72a1,1,0,0,0-.6,1.06,1,1,0,0,0,1.1.73.48.48,0,0,0,.17-.05l1.85-.72a.91.91,0,1,0-.61-1.71Z"/><path d="M618.28,163l1.85-.72a1,1,0,0,0,.6-1.06.92.92,0,0,0-1.08-.75h0a.64.64,0,0,0-.18.06l-1.85.72a.93.93,0,0,0,.62,1.76Z"/><path d="M612.66,165.15l1.85-.72a.93.93,0,0,0-.6-1.77h-.07l-1.84.72a.94.94,0,1,0,.51,1.81l.15-.06Z"/><path d="M607.08,167.33l1.85-.72a1,1,0,0,0,.59-1.06.93.93,0,0,0-1.09-.74h0l-.17.05-1.86.72a.94.94,0,0,0,.62,1.77Z"/><path d="M602.67,167.05l-1.85.72a.93.93,0,0,0-.62,1.16h0a1,1,0,0,0,1.18.62h.12l1.84-.73a.91.91,0,1,0-.61-1.71Z"/><path d="M597.09,169.25l-3.72,1.45a.94.94,0,1,0,.44,1.83l.12,0h.12l3.71-1.45a1,1,0,0,0,.6-1.06.93.93,0,0,0-1.09-.74h0A.55.55,0,0,0,597.09,169.25Z"/><path d="M620.93,153.44l1.85-.72a.93.93,0,0,0-.62-1.76h-.06l-1.85.73a.93.93,0,0,0,.62,1.76Z"/><path d="M615.3,155.6l1.84-.72a.93.93,0,1,0-.6-1.77h-.06l-1.85.72a.94.94,0,0,0,.49,1.8Z"/><path d="M609.75,157.78l1.85-.72a.94.94,0,0,0-.49-1.8l-.18.05-1.84.72a.93.93,0,0,0,.6,1.77Z"/><path d="M604.17,160l1.85-.72a.93.93,0,1,0-.62-1.76h-.06l-1.85.72a.94.94,0,0,0,.62,1.77Z"/><path d="M598.58,162.15l1.85-.72a.94.94,0,0,0-.61-1.77h-.06l-1.85.72a.94.94,0,0,0,.49,1.8Z"/><path d="M591.13,165.06l3.72-1.45a.94.94,0,0,0-.61-1.77h-.07l-3.71,1.46a1,1,0,0,0-.6,1.06,1,1,0,0,0,1.1.73Z"/><path d="M619.84,156.08l-1.85.72a1,1,0,0,0-.6,1.06,1,1,0,0,0,1.09.74h.17l1.85-.72a.93.93,0,1,0-.6-1.77Z"/><path d="M614.3,158.26l-1.85.73a.91.91,0,1,0,.61,1.71h.06L615,160a.94.94,0,1,0-.33-1.85l-.18,0h-.16Z"/><path d="M608.66,160.45l-1.85.72a.93.93,0,0,0,.62,1.76h.06l1.84-.72a.94.94,0,0,0-.56-1.8h-.11Z"/><path d="M603.08,162.63l-1.85.72a.94.94,0,0,0,.49,1.8l.17-.05,1.86-.72a.94.94,0,0,0-.59-1.78Z"/><path d="M592.59,168.75l5.58-2.19a.93.93,0,0,0-.62-1.76h-.06l-5.58,2.2a.93.93,0,1,0,.61,1.76Z"/><path d="M622.49,146.46l-1.86.73a.94.94,0,1,0,.44,1.83l.12,0h.12l1.84-.72a.94.94,0,0,0-.61-1.77Z"/><path d="M615.71,151.12l1.86-.72a1,1,0,0,0,.6-1.07,1,1,0,0,0-1.1-.73l-.18.05-1.84.72a.94.94,0,0,0,.61,1.77Z"/><path d="M610.13,153.31l1.85-.73a.93.93,0,0,0-.61-1.76h-.06l-1.85.72a.92.92,0,0,0-.65,1.14h0a.94.94,0,0,0,1.16.65h0l.16-.05Z"/><path d="M604.55,155.49l1.84-.72a1,1,0,0,0,.6-1.06.93.93,0,0,0-1.07-.75.6.6,0,0,0-.19.06l-1.85.72a.94.94,0,0,0,.61,1.77Z"/><path d="M599,157.67l1.85-.72a1,1,0,0,0,.6-1.06,1,1,0,0,0-1.09-.74h-.18l-1.85.72a.94.94,0,1,0,.44,1.83l.12,0H599Z"/><path d="M589.65,161.35l5.58-2.19a.92.92,0,0,0,.65-1.14h0a.94.94,0,0,0-1.16-.65h-.16L589,159.6a1,1,0,0,0-.6,1.05.94.94,0,0,0,1.09.75Z"/><path d="M543.05,181.67h-1.13V149.31a4.11,4.11,0,0,0-4.12-4.1H489.61a4.12,4.12,0,0,0-4.13,4.1h0v32.36h-1.06a1,1,0,0,0-1,1v2.07a3.06,3.06,0,0,0,3,3.06H541a3.07,3.07,0,0,0,3.07-3.05h0v-2.07a1,1,0,0,0-1-1Zm-53.43-34.5h48.19a2.16,2.16,0,0,1,2.15,2.15v32.35h-52.5V149.32a2.17,2.17,0,0,1,2.16-2.15Zm52.45,37.54a1.11,1.11,0,0,1-1.11,1.11H486.53a1.11,1.11,0,0,1-1.11-1.11v-1.08h22.12a.06.06,0,0,0,0,.06,1,1,0,0,0,1,1H519a1,1,0,0,0,1-1v-.06h22.11Z"/><path d="M536.81,149.36h-46.1a1,1,0,0,0-1,1v28.09a1,1,0,0,0,1,1h46.1a1,1,0,0,0,1-1V150.33A1,1,0,0,0,536.81,149.36Zm-1,28.09H491.7V151.32h44.12Z"/><path d="M502.76,106.32h-1.14V74a4.12,4.12,0,0,0-4.12-4.1H449.31a4.12,4.12,0,0,0-4.12,4.1v32.35h-1.06a1,1,0,0,0-1,1v2.07a3.06,3.06,0,0,0,3.06,3.06h54.45a3.06,3.06,0,0,0,3.07-3h0v-2.07a1,1,0,0,0-.9-1.09ZM449.31,71.83h48.18A2.16,2.16,0,0,1,499.65,74h0v32.34H447.16V74a2.15,2.15,0,0,1,2.15-2.15Zm52.46,37.54a1.11,1.11,0,0,1-1.12,1.1H446.22a1.11,1.11,0,0,1-1.11-1.1v-1.08h22.17v.06a1,1,0,0,0,1,1h10.47a1,1,0,0,0,1-1v-.06h22.11Z"/><path d="M496.47,74H450.39a1,1,0,0,0-1,1v28.05a1,1,0,0,0,1,1h46.06a1,1,0,0,0,1-1V75A1,1,0,0,0,496.47,74Zm-1,28.1h-44.1V76h44.08Z"/><path d="M639.14,0,591.45,2.7A4.1,4.1,0,0,0,588,7.25L590.22,47c.13,2.4,1.93,4.26,4,4.14l16.25-.92L610.09,57l-1.2.06a1.08,1.08,0,0,0-.1,2.1.74.74,0,0,0,.21,0l1.91-.1h0l15.31-.87h0l1.89-.11a1.06,1.06,0,0,0,.07-2.06L628,56l-1.14.07-1.12-6.75,16.16-.91c2.08-.12,3.64-2.17,3.52-4.57l-2.31-39.7C643,1.73,641.17-.13,639.14,0Zm-27.4,56.92.35-6.83,11.83-.67L625,56.16Zm30-10.51-47.68,2.7a2.15,2.15,0,0,1-2.1-2.17l-.13-2.28,51.66-2.91.13,2.27a2.14,2.14,0,0,1-1.86,2.39h0Zm1.59-6.74-51.66,3-2-35.43a2.16,2.16,0,0,1,1.84-2.39L639.2,2.17a2.12,2.12,0,0,1,2.09,2.15h0Z"/><path d="M616.85,46.52l1.9-.1a1.06,1.06,0,0,0,.07-2.07h-.21l-1.89.1a1.05,1.05,0,0,0-.07,2.06Z"/><path d="M638.34,4.45,592.57,7a1,1,0,0,0-.84,1.07L593.49,39a1,1,0,0,0,1,1l45.78-2.59a1,1,0,0,0,.83-1.09L639.33,5.43A1,1,0,0,0,638.34,4.45Zm.94,31-44,2.46-1.7-28.85,44-2.49Z"/><path d="M438.94,138.63l-41.79-1.71a3.28,3.28,0,0,0-3.43,3.12h0l-1.24,30a3.29,3.29,0,0,0,3.16,3.41l14.23.58-.87,5h-1a.81.81,0,0,0-.82.61.78.78,0,0,0,.5,1l.05,0h.19l1.68.07h0l13.41.55h0l1.66.07a.8.8,0,0,0,.88-.71.81.81,0,0,0-.64-.87h-1.16l-.43-5.14,14.16.59A3.29,3.29,0,0,0,440.9,172h0l1.24-29.9a3.27,3.27,0,0,0-3.05-3.49Zm-28.43,40.5.85-5.09,10.36.42.43,5.14Zm27-5.53-41.74-1.73a1.71,1.71,0,0,1-1.65-1.77h0l.07-1.71,45.19,1.87-.07,1.71a1.72,1.72,0,0,1-1.8,1.62h0Zm2-4.94-45.24-1.85,1.1-26.67a1.72,1.72,0,0,1,1.79-1.65h0L439,140.2A1.7,1.7,0,0,1,440.6,142v0h0Z"/><path d="M415.81,171.72l1.66.07a.78.78,0,0,0,.82-.74.79.79,0,0,0-.75-.82l-1.65-.07a.78.78,0,0,0-.08,1.56Z"/><path d="M437.93,141.91l-40.1-1.64a.78.78,0,0,0-.82.74h0l-1,23.27a.78.78,0,0,0,.75.81h0l40.11,1.64a.78.78,0,0,0,.81-.75h0l1-23.27a.76.76,0,0,0-.71-.81h0Zm-1.69,23.24-38.58-1.58.89-21.73,38.59,1.57Z"/><path d="M80.93,62.42,66.65,69.89a8,8,0,0,0-3.37,10.76L76.2,105a16.37,16.37,0,0,0,21.32,7,16,16,0,0,0,7.38-21.39l0,0-.2-.4L91.76,65.77A8,8,0,0,0,81,62.41h0Zm-5.66,4.86,6.41-3.34a6.31,6.31,0,0,1,2.72-.73l6.83,12.92a4.51,4.51,0,0,1-1.89,6.09h0l-4.83,2.52-2.61-4.94a2.58,2.58,0,0,0,.44-3l-1.66-3.16a2.66,2.66,0,0,0-2.81-1.38Zm3.91,7.14,1.65,3.06a.92.92,0,0,1-.37,1.26.94.94,0,0,1-1.27-.37h0l-1.65-3.11a.92.92,0,0,1,1.64-.84ZM65.27,73.2a6.23,6.23,0,0,1,2.13-1.82L73.88,68l2.62,5a2.61,2.61,0,0,0-.44,3l1.66,3.15a2.64,2.64,0,0,0,2.77,1.35l2.62,4.94L78.29,88a4.55,4.55,0,0,1-6.13-1.9ZM103,91a14.25,14.25,0,0,1-5.43,19.41l-.07,0A14.4,14.4,0,0,1,78,105c-.11-.19-.22-.39-.31-.58l-13-24.48a6.35,6.35,0,0,1-.45-4.85l6.28,11.85a6.24,6.24,0,0,0,8.4,2.6l11.08-5.8a6.18,6.18,0,0,0,2.74-8.29l0,0h0L86.49,63.55a6.29,6.29,0,0,1,3.76,3.11Z"/><path d="M85.44,88.25a2.59,2.59,0,0,0-1.11,3.5v0a2.63,2.63,0,1,0,1.13-3.54Zm1.67,3.16A1,1,0,0,1,85.73,90a.87.87,0,0,1,.5-.26,1,1,0,0,1,.88,1.67Z"/><path d="M282,73.36l-16-2.19A8,8,0,0,0,257,78l-3.78,27.26A16.08,16.08,0,0,0,285,110.18v0a3.5,3.5,0,0,1,.07-.45l3.81-27.39A8,8,0,0,0,282,73.36Zm-7.45.66,7.17,1a6.49,6.49,0,0,1,2.64,1l-2,14.46a4.53,4.53,0,0,1-5.12,3.85l-5.4-.74L272.6,88a2.62,2.62,0,0,0,2.14-2.2l.5-3.54a2.65,2.65,0,0,0-1.46-2.71Zm-1,8.07-.48,3.43a.93.93,0,0,1-1.85-.23l.49-3.48a.92.92,0,0,1,1-.8h.06a1,1,0,0,1,.76,1.08Zm-10.59-9a6.17,6.17,0,0,1,2.8-.23l7.17,1-.76,5.55A2.63,2.63,0,0,0,270,81.57l-.48,3.53A2.6,2.6,0,0,0,271,87.8l-.77,5.56-5.39-.74A4.52,4.52,0,0,1,261,87.54h0Zm20.35,36.29a14.36,14.36,0,1,1-28.55-3.18h0a4.11,4.11,0,0,1,.08-.6l3.83-27.36A6.32,6.32,0,0,1,261.14,74l-1.88,13.24a6.21,6.21,0,0,0,5.29,7h.07L277,96a6.21,6.21,0,0,0,7-5.27l1.8-13.32a6.32,6.32,0,0,1,1.25,4.71Z"/><path d="M270.58,97a2.62,2.62,0,1,0,2.25,3,2.62,2.62,0,0,0-2.25-3Zm-.49,3.54a1,1,0,1,1,1.11-.89h0v.08a1,1,0,0,1-1.12.81Z"/><path d="M222,24.21,173.79,11.07A4,4,0,0,0,169,13.8l-5.28,19.13a3.93,3.93,0,0,0,2.75,4.81L214.66,50.9a4,4,0,0,0,4.84-2.75L224.78,29A4,4,0,0,0,222,24.21Zm-6.87,24.92L166.92,36a2,2,0,0,1-1.46-2.42.29.29,0,0,1,0-.09h0l5.28-19.15a2.07,2.07,0,0,1,2.53-1.45L221.52,26A2,2,0,0,1,223,28.48v.06h0l-5.27,19.2a2.08,2.08,0,0,1-2.58,1.39Z"/><path d="M204.24,40,181,33.63a1,1,0,0,0-1.11.49.9.9,0,0,0,.4,1.22l0,0,.16.07,23.21,6.33a1,1,0,0,0,1.11-.5.93.93,0,0,0-.37-1.25h-.19Z"/><path d="M177.2,32.58l-1.92-.52a.93.93,0,0,0-1.12.71.92.92,0,0,0,.54,1.07h.06l1.92.51a.92.92,0,0,0,1.11-.47,1,1,0,0,0-.51-1.3Z"/><path d="M171.4,31l-1.91-.52a.94.94,0,0,0-1.24.47.93.93,0,0,0,.47,1.24l.09,0H169l1.92.53a1,1,0,0,0,1.11-.5.93.93,0,0,0-.43-1.24Z"/><path d="M215.78,43.1l-1.92-.52A1,1,0,0,0,212.5,44a.68.68,0,0,0,.26.18,1,1,0,0,0,.59.17l1.91.52a1,1,0,0,0,1.38-.27,1,1,0,0,0-.27-1.37A1,1,0,0,0,215.78,43.1Z"/><path d="M210,41.53,208.06,41a.93.93,0,0,0-.57,1.77h.06l1.91.52a1,1,0,0,0,1.13-.5.94.94,0,0,0-.44-1.24h0Z"/><path d="M216.83,39.29l-3.87-1a.93.93,0,0,0-.58,1.77h.06l3.85,1a.94.94,0,0,0,.59-1.78Z"/><path d="M209.1,37.17l-1.9-.51a1,1,0,0,0-1.11.49.93.93,0,0,0,.42,1.25h0l.17.06,1.94.53a.93.93,0,0,0,1.15-.64h0a.61.61,0,0,0,0-.19A1,1,0,0,0,209.1,37.17Z"/><path d="M200.89,36.88l1.92.52a1,1,0,0,0,1.22-.54.94.94,0,0,0-.55-1.21h-.16l-1.9-.52a.94.94,0,0,0-.58,1.78Z"/><path d="M195.08,35.31l1.92.52a1,1,0,1,0,1.1-1.64,1,1,0,0,0-.59-.17l-1.92-.51a.93.93,0,0,0-1.21.53h0a.92.92,0,0,0,.51,1.2h0Z"/><path d="M189.32,33.73l1.91.52a.94.94,0,0,0,.69-1.74l-.17-.06-1.92-.51a1,1,0,0,0-1.11.49.94.94,0,0,0,.44,1.24h0Z"/><path d="M183.52,32.15l1.92.52a1,1,0,0,0,1.12-.49.9.9,0,0,0-.4-1.22l0,0-.17-.07-1.91-.52a.92.92,0,0,0-1.17.6.93.93,0,0,0,.6,1.18Z"/><path d="M180.18,29.29l-1.92-.52a.94.94,0,0,0-1.18.6,1,1,0,0,0,.61,1.18h.05l1.92.52a1,1,0,0,0,1.22-.54.94.94,0,0,0-.55-1.21Z"/><path d="M174.39,27.72l-3.85-1.06a1,1,0,0,0-1.12.5.93.93,0,0,0,.43,1.24.49.49,0,0,0,.17.06l3.85,1.06A1,1,0,0,0,175,29a.93.93,0,0,0-.43-1.24Z"/><path d="M218.92,31.65l-3.85-1a.94.94,0,0,0-1.18.6,1,1,0,0,0,.61,1.18h.05l3.85,1a.94.94,0,0,0,1.22-.53h0a.93.93,0,0,0-.53-1.21h0Z"/><path d="M208.79,30.82l1.91.53a1,1,0,0,0,1.22-.55.93.93,0,0,0-.53-1.21h-.17L209.3,29a1,1,0,0,0-1.11.5.91.91,0,0,0,.42,1.23h0A.53.53,0,0,0,208.79,30.82Z"/><path d="M203,29.25l1.91.53A.94.94,0,0,0,205.5,28h-.07l-1.92-.52a.94.94,0,0,0-1.11.49,1,1,0,0,0,.54,1.29Z"/><path d="M197.21,27.67l1.92.52a.93.93,0,0,0,.57-1.78h0l-1.92-.53a.94.94,0,0,0-.58,1.78Z"/><path d="M191.42,26.09l1.92.52a1,1,0,0,0,1.11-.49.9.9,0,0,0-.4-1.22l0,0a.44.44,0,0,0-.16-.06l-1.92-.53a1,1,0,0,0-1.11.5.91.91,0,0,0,.42,1.23h0A.44.44,0,0,0,191.42,26.09Z"/><path d="M185.63,24.51l1.92.52a.93.93,0,1,0,.58-1.77h-.07l-1.92-.53a.93.93,0,0,0-.56,1.78Z"/><path d="M179.85,22.94l1.92.52A1,1,0,0,0,183.1,23a1,1,0,0,0-.23-1.15,1,1,0,0,0-.59-.16l-1.91-.52a1,1,0,0,0-1.22.54.92.92,0,0,0,.51,1.2h0Z"/><path d="M172.12,20.84l3.85,1a.94.94,0,0,0,1.18-.6,1,1,0,0,0-.61-1.18h0l-3.84-1a1,1,0,0,0-1.34,1.48.87.87,0,0,0,.23.16,1.06,1.06,0,0,0,.58.17Z"/><path d="M217.93,35.48l-2-.53a.93.93,0,0,0-1.12.71.92.92,0,0,0,.54,1.07h.06l1.92.52a1,1,0,0,0,1.11-.49.91.91,0,0,0-.39-1.24h0Z"/><path d="M212.1,33.91l-1.92-.52a1,1,0,0,0-1.11.49.93.93,0,0,0,.42,1.25h0l.17.06,1.92.52a.94.94,0,0,0,1.18-.6,1,1,0,0,0-.61-1.18h0Z"/><path d="M206.31,32.31l-1.91-.52a1,1,0,0,0-1.13.49.94.94,0,0,0,.44,1.25l.17.06,1.92.52a.93.93,0,0,0,.57-1.77Z"/><path d="M200.52,30.73l-1.92-.52a1,1,0,1,0-1.1,1.64,1,1,0,0,0,.59.17l1.92.51a.94.94,0,0,0,1.11-.48,1,1,0,0,0-.54-1.29Z"/><path d="M194.73,29.16l-1.92-.52a1,1,0,0,0-1.22.54.94.94,0,0,0,.55,1.21l.16.05,1.91.52a.94.94,0,0,0,1.18-.6,1,1,0,0,0-.61-1.18Z"/><path d="M189,27.58l-2-.52a1,1,0,0,0-1.12.49.91.91,0,0,0,.42,1.23h0l.17.07,1.92.52a.94.94,0,0,0,.6-1.78Z"/><path d="M183.16,26l-1.92-.52a1,1,0,0,0-1.06.52.9.9,0,0,0,.4,1.22l0,0,.16.07,1.92.52a.94.94,0,0,0,.59-1.78Z"/><path d="M171.07,24.65l5.79,1.58a1,1,0,1,0,1.1-1.64.92.92,0,0,0-.58-.17l-5.8-1.57a.94.94,0,0,0-1.18.6,1,1,0,0,0,.61,1.18h0Z"/><path d="M220,27.77l-1.91-.52a.93.93,0,1,0-.57,1.77h0l1.92.53a1,1,0,0,0,1.11-.5.93.93,0,0,0-.43-1.24Z"/><path d="M214.22,26.19l-1.92-.52a1,1,0,0,0-1.11.49.93.93,0,0,0,.43,1.24.49.49,0,0,0,.17.06l1.91.53a1,1,0,0,0,1.22-.54.94.94,0,0,0-.53-1.22h0Z"/><path d="M208.43,24.61l-1.92-.52a.93.93,0,0,0-.56,1.78H206l1.91.53a.94.94,0,1,0,.68-1.76h-.16Z"/><path d="M200.21,24.31l1.92.53a1,1,0,0,0,1.38-.27,1,1,0,0,0-.27-1.37,1,1,0,0,0-.59-.17l-1.92-.52a.94.94,0,0,0-.67,1.76h0Z"/><path d="M194.42,22.73l1.92.53a1,1,0,0,0,1.11-.5.9.9,0,0,0-.4-1.22l0,0a.44.44,0,0,0-.16-.06l-1.92-.53a1,1,0,0,0-1.11.5.9.9,0,0,0,.4,1.22l0,0A.44.44,0,0,0,194.42,22.73Z"/><path d="M188.63,21.15l1.92.53a1,1,0,0,0,1.12-.5.91.91,0,0,0-.42-1.23h0a.64.64,0,0,0-.18-.06l-1.94-.53a.93.93,0,0,0-.55,1.78Z"/><path d="M182.85,19.57l1.92.52a.94.94,0,0,0,.67-1.75h-.16l-1.91-.53a.93.93,0,0,0-.57,1.78Z"/><path d="M173.22,16.94,179,18.52a.94.94,0,0,0,1.18-.6,1,1,0,0,0-.61-1.18h0l-5.82-1.58a1,1,0,0,0-1.11.49.92.92,0,0,0,.42,1.23h0A.59.59,0,0,0,173.22,16.94Z"/><path d="M322.83,138.05l-46.55,18.2a3.94,3.94,0,0,0-2.22,5.1l7.31,18.49a4,4,0,0,0,5.1,2.21L333,163.86a4,4,0,0,0,2.23-5.08l-7.31-18.49A4,4,0,0,0,322.83,138.05Zm9.5,24-46.54,18.18a2.06,2.06,0,0,1-2.67-1.13h0l-7.32-18.48A2.06,2.06,0,0,1,277,158h0l46.53-18.2a2.08,2.08,0,0,1,2.68,1.17l7.3,18.48a2,2,0,0,1-1.07,2.62l-.08,0Z"/><path d="M318.06,161.26,295.67,170a.93.93,0,0,0,.62,1.76h0l22.4-8.75a.94.94,0,0,0-.5-1.81Z"/><path d="M292,171.45l-1.85.72a1,1,0,0,0-.6,1.07,1,1,0,0,0,1.1.73l.16-.05,1.86-.72a.94.94,0,0,0-.61-1.77Z"/><path d="M286.38,173.64l-1.84.72a.93.93,0,1,0,.61,1.76h.05l1.85-.72a.92.92,0,0,0,.65-1.14h0a.94.94,0,0,0-1.16-.65h0A.42.42,0,0,0,286.38,173.64Z"/><path d="M329.19,156.9l-1.85.72a.94.94,0,0,0,.61,1.77H328l1.85-.72a1,1,0,0,0,.59-1.06.93.93,0,0,0-1.09-.74h0Z"/><path d="M323.62,159.08l-1.85.73a.93.93,0,1,0,.61,1.76h.06l1.85-.72a.93.93,0,0,0-.61-1.76Z"/><path d="M327.76,153.22,324,154.67a.94.94,0,0,0-.62,1.17,1,1,0,0,0,1.19.62h.11l3.71-1.46A1,1,0,0,0,329,154a.92.92,0,0,0-1.07-.74h-.16Z"/><path d="M320.25,156.13l-1.84.72a.94.94,0,1,0,.44,1.83l.12,0h.12l1.86-.73a.94.94,0,1,0-.5-1.81l-.12,0Z"/><path d="M313.53,160.78l1.86-.72A1,1,0,0,0,316,159a.94.94,0,0,0-1.09-.75l-.18.05-1.85.72a.94.94,0,0,0,.61,1.77Z"/><path d="M308,163l1.85-.72a.94.94,0,0,0-.61-1.77h-.06l-1.85.72a.92.92,0,0,0-.65,1.14h0a1,1,0,0,0,1.16.66Z"/><path d="M302.37,165.15l1.85-.72a1,1,0,0,0,.59-1.06.93.93,0,0,0-1.09-.74h0l-.17.05-1.86.72a.94.94,0,0,0,.62,1.77Z"/><path d="M296.78,167.33l1.85-.72a.93.93,0,0,0-.61-1.76h0l-1.85.72a.94.94,0,0,0-.62,1.18h0a1,1,0,0,0,1.18.62Z"/><path d="M292.37,167.05l-1.84.72a.93.93,0,0,0-.66,1.14h0a1,1,0,0,0,1.17.65h.15l1.85-.73a.93.93,0,1,0-.61-1.76h0Z"/><path d="M286.79,169.25l-3.71,1.45a.94.94,0,1,0,.51,1.81l.15-.06,3.72-1.45a.94.94,0,0,0-.61-1.77Z"/><path d="M324.84,145.85l-3.72,1.45a.94.94,0,0,0,.62,1.77h.06l3.71-1.45a.94.94,0,0,0-.61-1.77Z"/><path d="M316.22,151.23l1.84-.72a.94.94,0,0,0-.61-1.77h-.06l-1.85.72a.94.94,0,0,0,.61,1.77Z"/><path d="M310.62,153.44l1.85-.72a.93.93,0,0,0-.6-1.76h-.06l-1.85.73a1,1,0,0,0-.6,1.05.92.92,0,0,0,1.07.74h0A.47.47,0,0,0,310.62,153.44Z"/><path d="M305,155.6l1.85-.72a1,1,0,0,0,.59-1.06.93.93,0,0,0-1.09-.74h-.17l-1.85.72a.93.93,0,0,0,.61,1.76Z"/><path d="M299.46,157.78l1.84-.72a.94.94,0,0,0-.61-1.77h-.06l-1.85.72a.94.94,0,0,0,.62,1.77Z"/><path d="M293.86,160l1.86-.72a.93.93,0,0,0-.61-1.76h-.06l-1.85.72a1,1,0,0,0-.6,1.06.93.93,0,0,0,1.09.74h0A.47.47,0,0,0,293.86,160Z"/><path d="M288.28,162.15l1.85-.72a.94.94,0,0,0-.61-1.77h-.06l-1.84.72a.93.93,0,0,0,.6,1.76Z"/><path d="M280.83,165.06l3.72-1.45a.94.94,0,0,0-.61-1.77h-.06l-3.72,1.46a.93.93,0,0,0,.62,1.76Z"/><path d="M326.3,149.49l-1.85.72a.94.94,0,0,0,.61,1.77h.06l1.84-.72a1,1,0,0,0,.6-1.06.93.93,0,0,0-1.09-.74h0Z"/><path d="M320.71,151.71l-1.85.73a.93.93,0,0,0,.61,1.76h.06l1.85-.72a.93.93,0,0,0-.61-1.76Z"/><path d="M315.12,153.9l-1.84.72a1,1,0,0,0-.6,1.06.93.93,0,0,0,1.09.74h.17l1.85-.72a.94.94,0,0,0-.61-1.77Z"/><path d="M309.54,156.08l-1.85.72a.94.94,0,0,0,.61,1.77h.06l1.85-.72a1,1,0,0,0,.59-1.06.93.93,0,0,0-1.09-.74h0Z"/><path d="M304,158.26l-1.85.73a.93.93,0,1,0,.61,1.76h.06l1.85-.72a.93.93,0,0,0,.62-1.16h0a.94.94,0,0,0-1.18-.62h0Z"/><path d="M298.39,160.45l-1.84.72a1,1,0,0,0-.6,1.06A.94.94,0,0,0,297,163l.17-.05,1.86-.72a.94.94,0,1,0-.56-1.8Z"/><path d="M292.78,162.63l-1.85.72a.94.94,0,0,0,.61,1.77h.06l1.85-.72a.94.94,0,0,0-.51-1.81h0Z"/><path d="M282.28,168.75l5.59-2.19a.93.93,0,0,0-.61-1.76h-.06l-5.59,2.2a1,1,0,0,0-.59,1.05.92.92,0,0,0,1.07.74h0Z"/><path d="M323.36,142.09l-1.85.73a.94.94,0,1,0,.51,1.81.44.44,0,0,0,.16-.06l1.84-.73a.94.94,0,0,0,.66-1.15h0a1,1,0,0,0-1.17-.65Z"/><path d="M317.78,144.28l-1.86.73a.93.93,0,0,0-.62,1.16h0a.94.94,0,0,0,1.18.62h.11l1.85-.74a.92.92,0,0,0,.66-1.12v0a.94.94,0,0,0-1.16-.65h0l-.15.06Z"/><path d="M312.18,146.46l-1.85.73a1,1,0,0,0-.66,1.16.94.94,0,0,0,1.16.65l.07,0H311l1.85-.72a.94.94,0,0,0-.62-1.78Z"/><path d="M305.42,151.12l1.85-.72a.93.93,0,1,0-.62-1.76h0l-1.85.72a.94.94,0,0,0,.51,1.81Z"/><path d="M299.83,153.31l1.85-.73a1,1,0,0,0,.6-1.06.94.94,0,0,0-1.08-.74.64.64,0,0,0-.18.06l-1.85.72a.93.93,0,0,0,.6,1.76Z"/><path d="M294.25,155.49l1.85-.72a1,1,0,0,0,.6-1.06,1,1,0,0,0-1.09-.74.59.59,0,0,0-.19.05l-1.84.72a.94.94,0,1,0,.44,1.83l.12,0Z"/><path d="M288.66,157.67l1.85-.72a1,1,0,0,0,.6-1.06.93.93,0,0,0-1.09-.74h-.18l-1.85.72a.94.94,0,1,0,.51,1.81h0A.43.43,0,0,0,288.66,157.67Z"/><path d="M279.35,161.35l5.58-2.19a.93.93,0,0,0,.62-1.16h0a.94.94,0,0,0-1.18-.62h-.11l-5.59,2.19a1,1,0,0,0-.59,1.05.92.92,0,0,0,1.08.75h.19Z"/><path d="M232.76,181.67h-1.14V149.31a4.12,4.12,0,0,0-4.13-4.1H179.31a4.12,4.12,0,0,0-4.12,4.1v32.36h-1.06a1,1,0,0,0-1,1v2.07a3.06,3.06,0,0,0,3.08,3.06h54.44a3.06,3.06,0,0,0,3.08-3.06h0v-2.07A1,1,0,0,0,232.76,181.67Zm-53.44-34.5h48.17a2.16,2.16,0,0,1,2.16,2.15v32.35H177.2V149.32a2.17,2.17,0,0,1,2.12-2.15Zm52.46,37.54a1.13,1.13,0,0,1-1.12,1.11H176.2a1.11,1.11,0,0,1-1.11-1.11h0v-1.08H197.2v.06a1,1,0,0,0,1,1h10.49a1,1,0,0,0,1-1v-.06H231.8Z"/><path d="M226.47,149.36H180.42a1,1,0,0,0-1,1v28.09a1,1,0,0,0,1,1h46.05a1,1,0,0,0,1-1V150.33A1,1,0,0,0,226.47,149.36Zm-1,28.09H181.4V151.32h44.09Z"/><path d="M192.46,106.32h-1.14V74a4.11,4.11,0,0,0-4.12-4.1H139a4.11,4.11,0,0,0-4.12,4.1h0v32.35h-1.07a1,1,0,0,0-1,1v2.07a3.06,3.06,0,0,0,3.08,3.06h54.44a3.06,3.06,0,0,0,3.08-3.06h0v-2.07A1,1,0,0,0,192.46,106.32ZM139,71.83h48.17A2.16,2.16,0,0,1,189.35,74v32.37H136.86V74A2.16,2.16,0,0,1,139,71.83Zm52.45,37.54a1.11,1.11,0,0,1-1.11,1.1H135.93a1.11,1.11,0,0,1-1.11-1.1v-1.08h22.11v.06a1,1,0,0,0,1,1H168.4a1,1,0,0,0,1-1v-.06h22.1Z"/><path d="M186.14,74h-46a1,1,0,0,0-1,1v28.05a1,1,0,0,0,1,1h46a1,1,0,0,0,1-1V75A1,1,0,0,0,186.14,74Zm-1,28.06h-44V76h44Z"/><path d="M328.8,0,281.12,2.7a4.14,4.14,0,0,0-3.59,4.55L279.8,47c.14,2.4,1.93,4.26,4,4.14l16.2-.93L299.67,57l-1.21.06a1,1,0,0,0-.85.91,1,1,0,0,0,.79,1.16h.2l1.91-.1h0l15.31-.87h0l1.9-.11a1,1,0,0,0,.86-1.21,1,1,0,0,0-.8-.85h-.2l-1.15.07-1.12-6.75,16.16-.91c2.08-.12,3.65-2.17,3.51-4.57l-2.17-39.7C332.67,1.73,330.87-.13,328.8,0ZM301.44,56.91l.35-6.83,11.83-.67,1.13,6.75Zm30-10.51-47.68,2.7a2.16,2.16,0,0,1-2.11-2.17l-.14-2.28,51.65-2.91.13,2.27A2.14,2.14,0,0,1,331.44,46.4ZM333,39.66l-51.65,3-2-35.43a2.14,2.14,0,0,1,1.84-2.39l47.68-2.68A2.14,2.14,0,0,1,331,4.28Z"/><path d="M306.56,46.52l1.9-.1a1.06,1.06,0,0,0,.07-2.07h-.21l-1.9.1a1.06,1.06,0,0,0-.07,2.06Z"/><path d="M328.05,4.45,282.26,7a1,1,0,0,0-.83,1.07L283.19,39a1,1,0,0,0,1,1L330,37.43a1,1,0,0,0,.84-1.09L329,5.43A1,1,0,0,0,328.05,4.45Zm.93,31-44.05,2.46L283.28,9.06l44.05-2.49Z"/><path d="M128.65,138.63l-41.81-1.71a3.28,3.28,0,0,0-3.42,3.13h0L82.19,170a3.29,3.29,0,0,0,3.15,3.41l14.23.58-.85,5H97.66a.8.8,0,0,0-.81.61.77.77,0,0,0,.48,1l.07,0h.18l1.68.07h0l13.41.55h0l1.66.07a.82.82,0,0,0,.83-.61.8.8,0,0,0-.54-1h-1.2l-.43-5.14,14.16.59a3.3,3.3,0,0,0,3.43-3.15l1.23-29.9a3.26,3.26,0,0,0-3-3.49Zm-28.44,40.5.85-5.09,10.36.42.43,5.14Zm27-5.53-41.79-1.7a1.72,1.72,0,0,1-1.65-1.79h0l.06-1.71,45.25,1.84L129,172a1.72,1.72,0,0,1-1.8,1.62Zm1.92-4.94L83.9,166.81,85,140.14a1.7,1.7,0,0,1,1.75-1.65h0l41.79,1.71a1.72,1.72,0,0,1,1.65,1.77Z"/><path d="M105.5,171.72l1.67.07a.78.78,0,0,0,.08-1.56l-1.66-.07a.81.81,0,0,0-.82.61.79.79,0,0,0,.6.93h0Z"/><path d="M127.62,141.91l-40.09-1.64a.77.77,0,0,0-.81.73v0h0l-.92,23.29a.77.77,0,0,0,.74.81h0l40.09,1.64a.79.79,0,0,0,.82-.73h0l1-23.27a.78.78,0,0,0-.73-.83h0Zm-1.68,23.24-38.58-1.58.9-21.73,38.58,1.57Z"/><path d="M12.53,138.05-34,156.25a3.94,3.94,0,0,0-2.23,5.1l7.31,18.49a4,4,0,0,0,5.11,2.21l46.54-18.21A3.94,3.94,0,0,0,25,158.76l-7.31-18.49A4,4,0,0,0,12.53,138.05Zm9.5,24-46.5,18.18a2.06,2.06,0,0,1-2.69-1.09h0v0l-7.31-18.49A2,2,0,0,1-33.33,158h0l46.54-18.2A2.07,2.07,0,0,1,15.88,141h0l7.34,18.48a2,2,0,0,1-1.17,2.65l-.05,0Z"/><path d="M7.77,161.26-14.62,170a.94.94,0,0,0-.66,1.15h0a1,1,0,0,0,1.17.65l.15-.06L8.44,163A.93.93,0,0,0,8,161.2Z"/><path d="M18.91,156.9l-1.85.72a.94.94,0,0,0,.61,1.77h.06l1.85-.72a.94.94,0,0,0-.49-1.8Z"/><path d="M13.28,159.08l-1.85.73a1,1,0,0,0-.59,1.05.92.92,0,0,0,1.07.74h0a.49.49,0,0,0,.17,0l1.86-.72a.93.93,0,0,0-.62-1.76Z"/><path d="M17.45,153.22l-3.71,1.45a.93.93,0,1,0,.62,1.76h0L18.13,155a.93.93,0,0,0-.61-1.76Z"/><path d="M10,156.13l-1.82.72a.93.93,0,0,0,.61,1.76h.05l1.87-.73a.94.94,0,1,0-.5-1.81l-.12,0Z"/><path d="M3.24,160.78l1.85-.72a.93.93,0,0,0-.61-1.76H4.42l-1.85.7a.94.94,0,1,0,.51,1.81A.45.45,0,0,0,3.24,160.78Z"/><path d="M-2.34,163l1.84-.72a1,1,0,0,0,.6-1.06.92.92,0,0,0-1-.78H-1l-.17.05-1.86.72a1,1,0,0,0-.6,1.05,1,1,0,0,0,1.21.71Z"/><path d="M14.54,145.85l-3.71,1.45a.94.94,0,0,0,.49,1.8h.17l3.72-1.45a.94.94,0,0,0-.61-1.77Z"/><path d="M5.91,151.23l1.85-.72a.94.94,0,0,0-.61-1.77H7.09l-1.84.72a1,1,0,0,0-.6,1.06.93.93,0,0,0,1.09.74h0Z"/><path d="M.37,153.44l1.85-.72a1,1,0,0,0,.59-1.05.92.92,0,0,0-1.08-.75h0l-.17.05-1.85.73a1,1,0,0,0-.6,1.05,1,1,0,0,0,1.21.71Z"/><path d="M16,149.49l-1.84.72a.94.94,0,0,0,.61,1.77h.06l1.85-.72a.94.94,0,0,0-.61-1.77Z"/><path d="M10.41,151.71l-1.85.73A1,1,0,0,0,8,153.49a.92.92,0,0,0,1.07.74h0a.49.49,0,0,0,.17,0l1.85-.72a.93.93,0,0,0-.61-1.76Z"/><path d="M4.83,153.9,3,154.62a.93.93,0,1,0,.6,1.77h.07l1.84-.72a1,1,0,0,0,.6-1.06A.93.93,0,0,0,5,153.84H5Z"/><path d="M-.76,156.08l-1.85.72a1,1,0,0,0-.6,1.06,1,1,0,0,0,1.21.71h.06l1.85-.72a1,1,0,0,0,.6-1.06,1,1,0,0,0-1.21-.71Z"/><path d="M13.06,142.09l-1.85.73a.94.94,0,0,0,.56,1.8l.11-.05,1.85-.73a.94.94,0,0,0-.51-1.81Z"/><path d="M7.47,144.28,5.62,145A.94.94,0,0,0,5,146.18H5a1,1,0,0,0,1.19.62H6.3l1.85-.8a.94.94,0,0,0,.62-1.17,1,1,0,0,0-1.19-.62Z"/><path d="M1.89,146.46,0,147.19A.95.95,0,0,0,.55,149l.16-.06,1.84-.72a.94.94,0,0,0-.6-1.78Z"/><path d="M18.5,0-29.19,2.7a4.09,4.09,0,0,0-3.5,4.56L-30.43,47c.14,2.4,1.93,4.26,4,4.14l16.24-.92L-10.56,57l-1.21.06a1,1,0,0,0-.86.91,1,1,0,0,0,.79,1.16h.21l1.91-.1h0L5.6,58.18h0l1.9-.11A1.06,1.06,0,0,0,7.57,56H7.36l-1.15.07L5.09,49.31l16.14-.91c2.08-.12,3.65-2.17,3.51-4.57L22.51,4.13C22.37,1.73,20.57-.13,18.5,0ZM-8.85,56.91l.35-6.83,11.85-.67,1.12,6.75Zm30-10.51-47.68,2.7a2.15,2.15,0,0,1-2.1-2.17l-.13-2.28L22.9,41.74,23,44a2.15,2.15,0,0,1-1.88,2.39h0Zm1.59-6.74-51.66,3-2-35.43a2.16,2.16,0,0,1,1.84-2.39l47.7-2.71a2.12,2.12,0,0,1,2.09,2.15h0Z"/><path d="M17.75,4.45-28,7a1,1,0,0,0-.84,1.07L-27.1,39a1,1,0,0,0,1,1l45.78-2.59a1,1,0,0,0,.83-1.09L18.71,5.43A1,1,0,0,0,17.75,4.45Zm.94,31-44,2.46L-27,9.06,17,6.57Z"/></g></g></svg>